<?xml version="1.0" encoding="utf-8"?>
<svg version="1.1" id="Capa_1" x="0px" y="0px" viewBox="0 0 373.232 373.232" 
 style="enable-background:new 0 0 373.232 373.232;fill:white;stroke:pink; stroke-width:10;stroke-opacity:0.9;" xmlns="http://www.w3.org/2000/svg">
  <g>
    <g>
      <path d="M 187.466 0 C 187.366 0 187.166 0 186.866 0 C 85.666 0 3.366 82.3 3.366 183.5 C 3.366 224.8 17.466 264.9 43.266 297.2 L 16.566 359.3 C 14.366 364.4 16.766 370.3 21.766 372.4 C 23.566 373.2 25.566 373.4 27.466 373.1 L 125.366 355.9 C 144.966 363 165.566 366.6 186.366 366.5 C 287.566 366.5 369.866 284.2 369.866 183 C 370.066 82.1 288.366 0.1 187.466 0 Z M 124.666 146.6 L 178.666 146.6 C 184.166 146.6 188.666 151.1 188.666 156.6 C 188.666 162.1 184.166 166.6 178.666 166.6 L 124.666 166.6 C 119.166 166.6 114.666 162.1 114.666 156.6 C 114.666 151.1 119.166 146.6 124.666 146.6 Z M 248.666 216.6 L 124.666 216.6 C 119.166 216.6 114.666 212.1 114.666 206.6 C 114.666 201.1 119.166 196.6 124.666 196.6 L 248.666 196.6 C 254.166 196.6 258.666 201.1 258.666 206.6 C 258.666 212.1 254.166 216.6 248.666 216.6 Z"/>
    </g>
  </g>
  <g/>
  <g/>
  <g/>
  <g/>
  <g/>
  <g/>
  <g/>
  <g/>
  <g/>
  <g/>
  <g/>
  <g/>
  <g/>
  <g/>
  <g/>
  <rect x="78.428" y="101.536" width="191.868" height="156.855" style="fill:white;"/>
</svg>