<?xml version="1.0" encoding="utf-8"?>
<svg version="1.0" width="512.000000pt" height="512.000000pt" viewBox="0 0 512.000000 512.000000" preserveAspectRatio="xMidYMid meet" xmlns="http://www.w3.org/2000/svg">
  <g transform="translate(0.000000,512.000000) scale(0.100000,-0.100000)" fill="#000000" stroke="none">
    <path d="M729 4671 c-137 -44 -243 -152 -283 -290 -14 -49 -16 -249 -16 -2005 l0 -1951 428 428 427 427 1515 0 c1657 0 1577 -3 1680 57 69 41 138 116 173 191 l32 67 0 1390 0 1390 -27 57 c-15 32 -39 74 -55 95 -43 56 -137 120 -210 143 -64 20 -89 20 -1837 19 -1673 0 -1774 -1 -1827 -18z" style="fill: rgb(255, 255, 255);"/>
  </g>
</svg>