<?xml version="1.0" encoding="utf-8"?>
<svg height="512pt" viewBox="0 0 512 512" width="512pt" xmlns="http://www.w3.org/2000/svg">
  <path d="m469.332031 0h-426.664062c-23.527344 0-42.667969 19.140625-42.667969 42.667969v448c0 17.050781 20.019531 27.335937 33.882812 17.253906l82.390626-59.921875h353.058593c23.527344 0 42.667969-19.140625 42.667969-42.667969v-362.664062c0-23.527344-19.140625-42.667969-42.667969-42.667969zm-44.90625 321.464844c-7.441406 13.902344-21.855469 22.535156-37.621093 22.535156h-106.824219l13.390625 15.265625-32.074219 28.136719-38.074219-43.402344h-98.027344c-15.765624 0-30.179687-8.632812-37.621093-22.535156-7.4375-13.898438-6.625-30.679688 2.117187-43.796875l50-75h-25.023437v-42.667969h53.46875l52.363281-78.542969c7.929688-11.894531 21.203125-19 35.5-19s27.566406 7.101563 35.5 19l58.390625 87.582031 5.78125-18.175781 40.660156 12.9375-16.132812 50.699219 42.109375 63.164062c8.742187 13.121094 9.554687 29.902344 2.117187 43.800782zm0 0" style="fill: rgb(255, 255, 255);"/>
  <rect x="54.754" y="49.951" width="417.861" height="368.871" style="fill:white;stroke:pink; stroke-width:5;stroke-opacity:0.9;/>
</svg>