<svg width="14" height="15" viewBox="0 0 14 15" fill="none" xmlns="http://www.w3.org/2000/svg">
<path fill-rule="evenodd" clip-rule="evenodd" d="M13 11.3281C13.1875 11.3281 13.3464 11.263 13.4766 11.1328C13.6068 11.0026 13.6719 10.849 13.6719 10.6719C13.6719 10.5573 13.6458 10.4505 13.5938 10.3516C13.5417 10.2526 13.4688 10.1771 13.375 10.125L13.0625 9.8125C12.8854 9.625 12.6927 9.32031 12.4844 8.89844C12.2761 8.47656 12.0886 7.92188 11.9219 7.23438C11.7552 6.54688 11.6719 5.69271 11.6719 4.67188C11.6719 4.02604 11.5495 3.41927 11.3047 2.85156C11.0599 2.28385 10.724 1.78646 10.2969 1.35938C9.88022 0.942708 9.38803 0.611979 8.82033 0.367188C8.25262 0.122396 7.64585 0 7.00001 0C6.35418 0 5.74741 0.122396 5.1797 0.367188C4.61199 0.611979 4.11981 0.942708 3.70314 1.35938C3.27606 1.78646 2.94012 2.28385 2.69533 2.85156C2.45053 3.41927 2.32814 4.02604 2.32814 4.67188C2.32814 5.69271 2.24481 6.54688 2.07814 7.23438C1.91147 7.92188 1.72658 8.47396 1.52345 8.89062C1.32033 9.30729 1.12501 9.60938 0.937514 9.79688C0.760431 9.98438 0.656264 10.0885 0.625014 10.1094C0.468764 10.2135 0.375014 10.3568 0.343764 10.5391C0.312514 10.7214 0.348972 10.8854 0.453139 11.0312C0.515639 11.1354 0.596368 11.2109 0.695327 11.2578C0.794285 11.3047 0.895847 11.3281 1.00001 11.3281H13ZM2.43751 10C2.58335 9.75 2.72918 9.45833 2.87501 9.125C3.02085 8.79167 3.15366 8.40625 3.27345 7.96875C3.39324 7.53125 3.4896 7.03646 3.56251 6.48438C3.63543 5.94271 3.67189 5.33854 3.67189 4.67188C3.67189 4.20312 3.75783 3.76823 3.9297 3.36719C4.10158 2.96615 4.33856 2.61458 4.64064 2.3125C4.94272 2.01042 5.29689 1.77083 5.70314 1.59375C6.10939 1.41667 6.54168 1.32812 7.00001 1.32812C7.45835 1.32812 7.89064 1.41667 8.29689 1.59375C8.70314 1.77083 9.05731 2.01042 9.35939 2.3125C9.66147 2.61458 9.89845 2.96615 10.0703 3.36719C10.2422 3.76823 10.3281 4.20312 10.3281 4.67188C10.3281 5.33854 10.3646 5.94271 10.4375 6.48438C10.5104 7.03646 10.6068 7.53125 10.7266 7.96875C10.8464 8.40625 10.9792 8.79167 11.125 9.125C11.2708 9.45833 11.4167 9.75 11.5625 10H2.43751ZM8.20314 14.2656C7.99481 14.4219 7.76564 14.5312 7.51564 14.5938C7.26564 14.6667 7.01043 14.6875 6.75001 14.6562C6.4896 14.625 6.2396 14.5365 6.00001 14.3906C5.84376 14.3073 5.70314 14.2031 5.57814 14.0781C5.45314 13.9531 5.34897 13.8125 5.26564 13.6562C5.17189 13.5 5.15106 13.3333 5.20314 13.1562C5.25522 12.9792 5.35939 12.8438 5.51564 12.75C5.67189 12.6667 5.83856 12.6484 6.01564 12.6953C6.19272 12.7422 6.32814 12.8438 6.42189 13C6.45314 13.0521 6.48699 13.0964 6.52345 13.1328C6.55991 13.1693 6.60939 13.2031 6.67189 13.2344C6.74481 13.2865 6.82553 13.3177 6.91408 13.3281C7.00262 13.3385 7.08856 13.3333 7.17189 13.3125C7.25522 13.2917 7.33074 13.2552 7.39845 13.2031C7.46616 13.151 7.52606 13.0833 7.57814 13C7.67189 12.8438 7.80731 12.7422 7.98439 12.6953C8.16147 12.6484 8.32814 12.6667 8.48439 12.75C8.64064 12.8438 8.74481 12.9792 8.79689 13.1562C8.84897 13.3333 8.82814 13.5052 8.73439 13.6719C8.58856 13.9115 8.41147 14.1094 8.20314 14.2656Z" fill="#DB2966"/>
</svg>
