<svg width="22" height="19" viewBox="0 0 22 19" fill="none" xmlns="http://www.w3.org/2000/svg">
<path fill-rule="evenodd" clip-rule="evenodd" d="M18.9922 18.9922C19.8203 18.9922 20.5273 18.6992 21.1133 18.1133C21.6992 17.5273 21.9922 16.8203 21.9922 15.9922V9.99219C21.9922 9.91406 21.9844 9.83984 21.9688 9.76953C21.9531 9.69922 21.9297 9.63281 21.8984 9.57031V9.54688L18.4531 2.65625C18.2031 2.17188 17.8398 1.77344 17.3633 1.46094C16.9463 1.1875 16.4844 1.03369 15.9777 0.999512L15.7578 0.992188H6.24219C5.64844 0.992188 5.11328 1.14453 4.63672 1.44922C4.16016 1.75391 3.80469 2.15625 3.57031 2.65625H3.54688L0.101562 9.54688V9.57031C0.0703125 9.63281 0.046875 9.69922 0.03125 9.76953C0.015625 9.83984 0.0078125 9.91406 0.0078125 9.99219V15.9922C0.0078125 16.8203 0.300781 17.5273 0.886719 18.1133C1.47266 18.6992 2.17969 18.9922 3.00781 18.9922H18.9922ZM19.3906 9.00781H2.60938L5.35156 3.54688C5.42969 3.39062 5.54688 3.26172 5.70312 3.16016C5.82812 3.07891 5.96812 3.03016 6.12313 3.01391L6.24219 3.00781H15.7578C15.9609 3.00781 16.1406 3.05859 16.2969 3.16016C16.4531 3.26172 16.5703 3.39062 16.6484 3.54688L19.3906 9.00781ZM3.00781 17H18.9922C19.2734 17 19.5117 16.9023 19.707 16.707C19.9023 16.5117 20 16.2734 20 15.9922V11H2V15.9922C2 16.2734 2.09766 16.5117 2.29297 16.707C2.48828 16.9023 2.72656 17 3.00781 17ZM5 15.0078C5.03125 15.0078 5.0625 15.0039 5.09375 14.9961C5.125 14.9883 5.15625 14.9844 5.1875 14.9844C5.21875 14.9688 5.25 14.957 5.28125 14.9492C5.3125 14.9414 5.34375 14.9297 5.375 14.9141C5.40625 14.8984 5.4375 14.8867 5.46875 14.8789C5.5 14.8711 5.53125 14.8516 5.5625 14.8203C5.57812 14.8047 5.60156 14.7891 5.63281 14.7734C5.66406 14.7578 5.6875 14.7344 5.70312 14.7031C5.75 14.6562 5.79297 14.6055 5.83203 14.5508C5.87109 14.4961 5.89844 14.4375 5.91406 14.375C5.94531 14.3281 5.96875 14.2695 5.98438 14.1992C6 14.1289 6.00781 14.0625 6.00781 14C6.00781 13.9375 6 13.8711 5.98438 13.8008C5.96875 13.7305 5.94531 13.6719 5.91406 13.625V13.6016C5.88281 13.5547 5.85156 13.5039 5.82031 13.4492C5.78906 13.3945 5.75 13.3438 5.70312 13.2969C5.6875 13.2656 5.66406 13.2422 5.63281 13.2266C5.60156 13.2109 5.57812 13.1953 5.5625 13.1797C5.53125 13.1484 5.5 13.1289 5.46875 13.1211C5.4375 13.1133 5.40625 13.1016 5.375 13.0859C5.34375 13.0703 5.3125 13.0586 5.28125 13.0508C5.25 13.043 5.21875 13.0312 5.1875 13.0156C5.15625 13.0156 5.125 13.0117 5.09375 13.0039C5.0625 12.9961 5.03125 12.9922 5 12.9922C4.85938 12.9922 4.73047 13.0195 4.61328 13.0742C4.49609 13.1289 4.39062 13.2031 4.29688 13.2969C4.20312 13.3906 4.12891 13.4961 4.07422 13.6133C4.01953 13.7305 3.99219 13.8594 3.99219 14C3.99219 14.2812 4.08984 14.5195 4.28516 14.7148C4.48047 14.9102 4.71875 15.0078 5 15.0078ZM9.39453 14.9258C9.27734 14.9805 9.14844 15.0078 9.00781 15.0078C8.96094 15.0078 8.92188 15.0039 8.89062 14.9961C8.85938 14.9883 8.82812 14.9844 8.79688 14.9844H8.82031C8.77344 14.9688 8.73438 14.957 8.70312 14.9492C8.67188 14.9414 8.64062 14.9297 8.60938 14.9141C8.57812 14.8984 8.54688 14.8867 8.51562 14.8789C8.48438 14.8711 8.46094 14.8516 8.44531 14.8203C8.41406 14.8047 8.38672 14.7891 8.36328 14.7734C8.33984 14.7578 8.3125 14.7344 8.28125 14.7031C8.25 14.6562 8.21484 14.6055 8.17578 14.5508C8.13672 14.4961 8.10938 14.4453 8.09375 14.3984L8.07031 14.375C8.05469 14.3281 8.03906 14.2734 8.02344 14.2109C8.00781 14.1484 8 14.0859 8 14.0234V14C8 13.8594 8.02734 13.7305 8.08203 13.6133C8.13672 13.4961 8.20312 13.3906 8.28125 13.2969L8.44531 13.1797C8.46094 13.1484 8.48438 13.1289 8.51562 13.1211C8.54688 13.1133 8.57812 13.1016 8.60938 13.0859C8.64062 13.0703 8.67188 13.0586 8.70312 13.0508C8.73438 13.043 8.76562 13.0312 8.79688 13.0156H8.82031C8.83594 13.0156 8.86328 13.0117 8.90234 13.0039C8.94141 12.9961 8.97656 12.9922 9.00781 12.9922C9.14844 12.9922 9.27734 13.0195 9.39453 13.0742C9.51172 13.1289 9.61719 13.2031 9.71094 13.2969C9.75781 13.3438 9.79688 13.3945 9.82812 13.4492C9.85938 13.5039 9.89062 13.5547 9.92188 13.6016V13.625C9.95312 13.6719 9.97266 13.7305 9.98047 13.8008C9.98828 13.8711 9.99219 13.9375 9.99219 14C9.99219 14.0625 9.98828 14.1289 9.98047 14.1992C9.97266 14.2695 9.95312 14.3281 9.92188 14.375C9.89062 14.4375 9.85938 14.4961 9.82812 14.5508C9.79688 14.6055 9.75781 14.6562 9.71094 14.7031C9.61719 14.7969 9.51172 14.8711 9.39453 14.9258Z" fill="#DB2966"/>
</svg>
