<svg width="22" height="21" viewBox="0 0 22 21" fill="none" xmlns="http://www.w3.org/2000/svg">
<path fill-rule="evenodd" clip-rule="evenodd" d="M10.2383 7.98047C9.71484 8.19141 9.16406 8.29688 8.58594 8.29688C8.52344 8.29688 8.46484 8.29297 8.41016 8.28516C8.35547 8.27734 8.29688 8.27344 8.23438 8.27344H7.88281C7.30469 8.27344 6.75781 8.17188 6.24219 7.96875C5.72656 7.76562 5.27344 7.47656 4.88281 7.10156C4.61719 6.83594 4.40625 6.51953 4.25 6.15234C4.09375 5.78516 4.01562 5.39844 4.01562 4.99219V4.71094C4.125 3.61719 4.57812 2.69141 5.375 1.93359C6.17188 1.17578 7.125 0.78125 8.23438 0.75H8.25781C9.35156 0.78125 10.2969 1.16797 11.0938 1.91016C11.8906 2.65234 12.3516 3.5625 12.4766 4.64062V4.66406C12.4766 4.71094 12.4805 4.76172 12.4883 4.81641L12.4971 4.89551L12.5 4.96875C12.5 5.39062 12.4219 5.78516 12.2656 6.15234C12.1094 6.51953 11.8906 6.83594 11.6094 7.10156C11.2188 7.47656 10.7617 7.76953 10.2383 7.98047ZM9.66406 20.707C9.19531 20.7305 8.72656 20.7422 8.25781 20.7422L7.72906 20.7375C7.03156 20.725 6.36406 20.6875 5.72656 20.625C4.91406 20.5312 4.17969 20.4102 3.52344 20.2617C2.86719 20.1133 2.28906 19.9375 1.78906 19.7344C1.30469 19.5156 0.929688 19.2812 0.664062 19.0312C0.585938 18.9688 0.515625 18.8984 0.453125 18.8203C0.390625 18.7422 0.34375 18.6484 0.3125 18.5391L0.265625 18.3984C0.25 18.3516 0.242188 18.3047 0.242188 18.2578V17.0859C0.242188 16.1953 0.359375 15.3672 0.59375 14.6016C0.828125 13.8203 1.14844 13.1445 1.55469 12.5742C1.96094 12.0039 2.4375 11.5625 2.98438 11.25C3.53125 10.9219 4.11719 10.7578 4.74219 10.7578H11.0938C10.375 11.3516 9.80469 12.082 9.38281 12.9492C8.96094 13.8164 8.75 14.75 8.75 15.75L8.75723 16.0705C8.79581 16.9185 8.98872 17.714 9.33594 18.457C9.72656 19.293 10.2578 20.0078 10.9297 20.6016H11.0469C10.5938 20.6484 10.1328 20.6836 9.66406 20.707ZM16.4609 21C16.6953 21 16.8945 20.9219 17.0586 20.7656C17.2227 20.6094 17.3047 20.4219 17.3047 20.2031V19.6406C17.3047 19.6094 17.3203 19.582 17.3516 19.5586C17.3828 19.5352 17.4141 19.5156 17.4453 19.5C17.4609 19.4844 17.4766 19.4766 17.4922 19.4766H17.5859C17.6016 19.4766 17.6172 19.4844 17.6328 19.5L18.0078 19.875C18.0859 19.9531 18.1758 20.0117 18.2773 20.0508C18.3789 20.0898 18.4922 20.1094 18.6172 20.1094C18.7266 20.1094 18.832 20.0898 18.9336 20.0508C19.0352 20.0117 19.125 19.9531 19.2031 19.875L19.8594 19.1953C19.9375 19.1172 19.9961 19.0273 20.0352 18.9258C20.0742 18.8242 20.0938 18.7188 20.0938 18.6094C20.0938 18.5 20.0742 18.3945 20.0352 18.293C19.9961 18.1914 19.9375 18.1016 19.8594 18.0234L19.4609 17.625L19.4492 17.6016C19.4414 17.5859 19.4375 17.5625 19.4375 17.5312C19.4375 17.4844 19.4531 17.4414 19.4844 17.4023C19.5156 17.3633 19.5625 17.3438 19.625 17.3438H20.1641C20.3984 17.3438 20.5977 17.2617 20.7617 17.0977C20.9258 16.9336 21.0078 16.7344 21.0078 16.5V15.5391C21.0078 15.3047 20.9297 15.1055 20.7734 14.9414C20.6172 14.7773 20.4219 14.6953 20.1875 14.6953H19.6484C19.6172 14.6953 19.5898 14.6797 19.5664 14.6484C19.543 14.6172 19.5234 14.5859 19.5078 14.5547C19.4922 14.5391 19.4805 14.5234 19.4727 14.5078C19.4648 14.4922 19.4609 14.4766 19.4609 14.4609C19.4609 14.4453 19.4648 14.4297 19.4727 14.4141C19.4805 14.3984 19.4922 14.3828 19.5078 14.3672L19.8594 13.9922C19.9375 13.9297 20 13.8477 20.0469 13.7461C20.0781 13.6784 20.099 13.6055 20.1094 13.5273L20.1172 13.4062C20.1172 13.2812 20.0938 13.168 20.0469 13.0664C20 12.9648 19.9375 12.875 19.8594 12.7969L19.1797 12.1172C19.1016 12.0547 19.0117 12 18.9102 11.9531C18.8086 11.9062 18.7031 11.8828 18.5938 11.8828C18.4844 11.8828 18.3789 11.9062 18.2773 11.9531C18.1758 12 18.0859 12.0625 18.0078 12.1406L17.6562 12.5391C17.6406 12.5391 17.625 12.543 17.6094 12.5508C17.5938 12.5586 17.5781 12.5625 17.5625 12.5625C17.5312 12.5625 17.5078 12.5586 17.4922 12.5508C17.4766 12.543 17.4609 12.5391 17.4453 12.5391C17.4141 12.5234 17.3906 12.5039 17.375 12.4805C17.3594 12.457 17.3516 12.4219 17.3516 12.375V11.8359C17.3516 11.6016 17.2695 11.4023 17.1055 11.2383C16.9414 11.0742 16.7422 10.9922 16.5078 10.9922H15.5234C15.2891 10.9922 15.0898 11.0742 14.9258 11.2383C14.7617 11.4023 14.6797 11.6016 14.6797 11.8359V12.3516C14.6797 12.3828 14.668 12.4102 14.6445 12.4336C14.6211 12.457 14.5938 12.4766 14.5625 12.4922C14.5469 12.5078 14.5312 12.5195 14.5156 12.5273C14.5 12.5352 14.4844 12.5391 14.4688 12.5391C14.4531 12.5391 14.4375 12.5352 14.4219 12.5273C14.4062 12.5195 14.3906 12.5078 14.375 12.4922L14 12.1406C13.9219 12.0625 13.832 12 13.7305 11.9531C13.6628 11.9219 13.5898 11.901 13.5117 11.8906L13.3906 11.8828C13.2812 11.8828 13.1758 11.9062 13.0742 11.9531C12.9727 12 12.8828 12.0625 12.8047 12.1406L12.125 12.8203C12.0469 12.8984 11.9883 12.9883 11.9492 13.0898C11.9102 13.1914 11.8906 13.2969 11.8906 13.4062C11.8906 13.5156 11.9102 13.6211 11.9492 13.7227C11.9883 13.8242 12.0469 13.9141 12.125 13.9922L12.5234 14.3672C12.5391 14.3828 12.5508 14.3984 12.5586 14.4141C12.5664 14.4297 12.5703 14.4453 12.5703 14.4609C12.5703 14.4922 12.5664 14.5156 12.5586 14.5312C12.5508 14.5469 12.5391 14.5625 12.5234 14.5781C12.5234 14.6094 12.5078 14.6328 12.4766 14.6484L12.3828 14.6953H11.8438C11.6094 14.6953 11.4102 14.7773 11.2461 14.9414C11.082 15.1055 11 15.2969 11 15.5156V16.4766C11 16.7109 11.082 16.9102 11.2461 17.0742C11.4102 17.2383 11.6094 17.3203 11.8438 17.3203H12.3594C12.3906 17.3203 12.418 17.332 12.4414 17.3555C12.4648 17.3789 12.4844 17.4062 12.5 17.4375C12.5156 17.4531 12.5234 17.4688 12.5234 17.4844V17.5781C12.5234 17.5938 12.5156 17.6094 12.5 17.625L12.125 18C12.0469 18.0781 11.9883 18.168 11.9492 18.2695C11.9232 18.3372 11.9058 18.4102 11.8971 18.4883L11.8906 18.6094C11.8906 18.7188 11.9102 18.8242 11.9492 18.9258C11.9883 19.0273 12.0469 19.1172 12.125 19.1953L12.8281 19.875C12.8906 19.9531 12.9727 20.0117 13.0742 20.0508C13.1758 20.0898 13.2891 20.1094 13.4141 20.1094C13.5234 20.1094 13.6289 20.0898 13.7305 20.0508C13.832 20.0117 13.9219 19.9531 14 19.875L14.375 19.4766C14.3906 19.4609 14.4062 19.4492 14.4219 19.4414C14.4375 19.4336 14.4531 19.4297 14.4688 19.4297C14.4844 19.4297 14.5039 19.4336 14.5273 19.4414C14.5508 19.4492 14.5703 19.4609 14.5859 19.4766C14.6016 19.4766 14.6211 19.4922 14.6445 19.5234C14.668 19.5547 14.6797 19.5859 14.6797 19.6172V20.1562C14.6797 20.3906 14.7617 20.5898 14.9258 20.7539C15.0898 20.918 15.2891 21 15.5234 21H16.4609ZM14.2344 17.7656C14.7188 18.25 15.3047 18.4922 15.9922 18.4922C16.6797 18.4922 17.2695 18.25 17.7617 17.7656C18.2539 17.2812 18.5 16.6953 18.5 16.0078C18.5 15.3047 18.2578 14.7109 17.7734 14.2266C17.2891 13.7422 16.6953 13.5 15.9922 13.5C15.3047 13.5 14.7188 13.7422 14.2344 14.2266C13.75 14.7109 13.5078 15.3047 13.5078 16.0078C13.5078 16.6953 13.75 17.2812 14.2344 17.7656Z" fill="#DB2966"/>
</svg>
