<svg width="22" height="20" viewBox="0 0 22 20" fill="none" xmlns="http://www.w3.org/2000/svg">
<path fill-rule="evenodd" clip-rule="evenodd" d="M9.38281 7.53125C9.96094 7.53125 10.5039 7.42578 11.0117 7.21484C11.5195 7.00391 11.9766 6.71875 12.3828 6.35938H12.3594C12.6406 6.07812 12.8594 5.75781 13.0156 5.39844C13.1719 5.03906 13.25 4.64844 13.25 4.22656C13.25 4.16406 13.2461 4.10547 13.2383 4.05078C13.2305 3.99609 13.2266 3.94531 13.2266 3.89844V3.92188C13.1172 2.82812 12.6602 1.91016 11.8555 1.16797C11.1127 0.482873 10.2467 0.100661 9.25765 0.0213341L9.00781 0.0078125C7.89844 0.0390625 6.94141 0.433594 6.13672 1.19141C5.33203 1.94922 4.875 2.86719 4.76562 3.94531V4.22656C4.76562 4.64844 4.84375 5.04297 5 5.41016C5.15625 5.77734 5.36719 6.09375 5.63281 6.35938C6.02344 6.71875 6.48047 7.00391 7.00391 7.21484C7.52734 7.42578 8.08594 7.53125 8.67969 7.53125H9.38281ZM18.0078 9.99219C18.2734 9.99219 18.5039 9.89453 18.6992 9.69922C18.8945 9.50391 18.9922 9.27344 18.9922 9.00781V8H20C20.2812 8 20.5195 7.90234 20.7148 7.70703C20.9102 7.51172 21.0078 7.27344 21.0078 6.99219C21.0078 6.72656 20.9102 6.49609 20.7148 6.30078C20.5195 6.10547 20.2812 6.00781 20 6.00781H18.9922V5C18.9922 4.71875 18.8945 4.48047 18.6992 4.28516C18.5039 4.08984 18.2734 3.99219 18.0078 3.99219C17.7266 3.99219 17.4883 4.08984 17.293 4.28516C17.0977 4.48047 17 4.71875 17 5V6.00781H15.9922C15.7266 6.00781 15.4961 6.10547 15.3008 6.30078C15.1055 6.49609 15.0078 6.72656 15.0078 6.99219C15.0078 7.27344 15.1055 7.51172 15.3008 7.70703C15.4961 7.90234 15.7266 8 15.9922 8H17V9.00781C17 9.27344 17.0977 9.50391 17.293 9.69922C17.4883 9.89453 17.7266 9.99219 18.0078 9.99219ZM11.5391 19.8828C10.7266 19.9609 9.88281 20 9.00781 20C8.11719 20 7.27344 19.9609 6.47656 19.8828C5.66406 19.7891 4.92969 19.668 4.27344 19.5195C3.61719 19.3711 3.03906 19.1875 2.53906 18.9688C2.05469 18.7656 1.67969 18.5391 1.41406 18.2891C1.33594 18.2266 1.26562 18.1523 1.20312 18.0664C1.14062 17.9805 1.09375 17.8906 1.0625 17.7969L1.01562 17.6562C1 17.6094 0.992188 17.5547 0.992188 17.4922V16.3438C0.992188 15.4531 1.10938 14.6172 1.34375 13.8359C1.57812 13.0703 1.89844 12.4023 2.30469 11.832C2.71094 11.2617 3.1875 10.8125 3.73438 10.4844C4.28125 10.1562 4.86719 9.99219 5.49219 9.99219H12.5C13.125 9.99219 13.7109 10.1562 14.2578 10.4844C14.8047 10.8125 15.2812 11.2617 15.6875 11.832C16.0938 12.4023 16.4141 13.0703 16.6484 13.8359C16.8828 14.6172 17 15.4531 17 16.3438V17.4922C17 17.5547 16.9961 17.6094 16.9883 17.6562C16.9805 17.7031 16.9609 17.75 16.9297 17.7969C16.8984 17.8906 16.8555 17.9805 16.8008 18.0664C16.7461 18.1523 16.6797 18.2266 16.6016 18.2891C16.3359 18.5391 15.9531 18.7656 15.4531 18.9688C14.9688 19.1875 14.3945 19.3711 13.7305 19.5195C13.0664 19.668 12.3359 19.7891 11.5391 19.8828Z" fill="#DB2966"/>
</svg>
