<svg width="16" height="17" viewBox="0 0 16 17" fill="none" xmlns="http://www.w3.org/2000/svg">
<path opacity="0.098769" fill-rule="evenodd" clip-rule="evenodd" d="M15.7969 16.1406C15.6719 16.2656 15.5182 16.3281 15.3359 16.3281C15.1536 16.3281 14.9948 16.2656 14.8594 16.1406L11.0625 12.3281H2C1.89583 12.3281 1.79427 12.3047 1.69531 12.2578C1.59635 12.2109 1.51562 12.1354 1.45312 12.0312C1.34896 11.8854 1.3125 11.7214 1.34375 11.5391C1.375 11.3568 1.46875 11.2135 1.625 11.1094C1.65625 11.0885 1.76042 10.9844 1.9375 10.7969C2.125 10.6094 2.32031 10.3073 2.52344 9.89062C2.72656 9.47396 2.91146 8.92188 3.07812 8.23438C3.24479 7.54688 3.32812 6.69271 3.32812 5.67188C3.32812 5.51562 3.33594 5.35677 3.35156 5.19531C3.36719 5.03385 3.39583 4.86979 3.4375 4.70312L0.203125 1.46875C0.0677083 1.34375 0 1.1875 0 1C0 0.8125 0.0677083 0.65625 0.203125 0.53125C0.328125 0.395833 0.481771 0.328125 0.664062 0.328125C0.846354 0.328125 1.00521 0.395833 1.14062 0.53125L15.7969 15.2031C15.9323 15.3281 16 15.4818 16 15.6641C16 15.8464 15.9323 16.0052 15.7969 16.1406ZM13 9.32812C12.9062 9.48438 12.7708 9.58854 12.5938 9.64062C12.4167 9.69271 12.2474 9.67188 12.0859 9.57812C11.9245 9.48438 11.8229 9.34896 11.7812 9.17188C11.6146 8.57812 11.4948 7.98177 11.4219 7.38281C11.349 6.78385 11.3177 6.20833 11.3281 5.65625C11.3281 5.19792 11.2422 4.76823 11.0703 4.36719C10.8984 3.96615 10.6615 3.61458 10.3594 3.3125C10.0573 3.01042 9.70573 2.77083 9.30469 2.59375C8.90365 2.41667 8.46875 2.32812 8 2.32812C7.65625 2.32812 7.32812 2.3776 7.01562 2.47656C6.70312 2.57552 6.41667 2.71354 6.15625 2.89062C6 2.99479 5.83073 3.02865 5.64844 2.99219C5.46615 2.95573 5.32812 2.85938 5.23438 2.70312C5.13021 2.55729 5.09375 2.39323 5.125 2.21094C5.15625 2.02865 5.25 1.88542 5.40625 1.78125C5.77083 1.53125 6.17448 1.33854 6.61719 1.20312C7.0599 1.06771 7.52083 1 8 1C8.64583 1 9.2526 1.1224 9.82031 1.36719C10.388 1.61198 10.8802 1.94271 11.2969 2.35938C11.724 2.78646 12.0599 3.28385 12.3047 3.85156C12.5495 4.41927 12.6719 5.02604 12.6719 5.67188V5.6875C12.651 6.17708 12.6745 6.6875 12.7422 7.21875C12.8099 7.75 12.9167 8.28646 13.0625 8.82812C13.1146 9.00521 13.0938 9.17188 13 9.32812ZM9.71875 11H3.4375C3.58333 10.7604 3.72396 10.4792 3.85938 10.1562C4.00521 9.84375 4.13542 9.47917 4.25 9.0625C4.36458 8.64583 4.45833 8.17708 4.53125 7.65625C4.60417 7.14583 4.64583 6.57292 4.65625 5.9375L9.71875 11ZM9.20312 15.2656C8.99479 15.4219 8.76562 15.5312 8.51562 15.5938C8.26562 15.6667 8.01042 15.6875 7.75 15.6562C7.48958 15.625 7.23958 15.5365 7 15.3906C6.84375 15.3073 6.70312 15.2031 6.57812 15.0781C6.45312 14.9531 6.34896 14.8125 6.26562 14.6562C6.17188 14.5 6.15104 14.3333 6.20312 14.1562C6.25521 13.9792 6.35938 13.8438 6.51562 13.75C6.67188 13.6667 6.83854 13.6484 7.01562 13.6953C7.19271 13.7422 7.32812 13.8438 7.42188 14C7.45312 14.0521 7.48698 14.0964 7.52344 14.1328C7.5599 14.1693 7.60938 14.2031 7.67188 14.2344C7.74479 14.2865 7.82552 14.3177 7.91406 14.3281C8.0026 14.3385 8.08854 14.3333 8.17188 14.3125C8.25521 14.2917 8.33073 14.2552 8.39844 14.2031C8.46615 14.151 8.52604 14.0833 8.57812 14C8.67188 13.8438 8.80729 13.7422 8.98438 13.6953C9.16146 13.6484 9.32812 13.6667 9.48438 13.75C9.64062 13.8438 9.74479 13.9792 9.79688 14.1562C9.84896 14.3333 9.82812 14.5052 9.73438 14.6719C9.58854 14.9115 9.41146 15.1094 9.20312 15.2656Z" fill="black"/>
</svg>
