<?xml version="1.0" encoding="utf-8"?>
<svg width="22" height="21" viewBox="0 0 22 21" fill="none" xmlns="http://www.w3.org/2000/svg">
  <path fill-rule="evenodd" clip-rule="evenodd" d="M8.58594 8.29688C9.16406 8.29688 9.71484 8.19141 10.2383 7.98047C10.7617 7.76953 11.2188 7.47656 11.6094 7.10156C11.8906 6.83594 12.1094 6.51953 12.2656 6.15234C12.4219 5.78516 12.5 5.39062 12.5 4.96875C12.5 4.92188 12.4961 4.87109 12.4883 4.81641L12.4795 4.7373L12.4766 4.66406V4.64062C12.3516 3.5625 11.8906 2.65234 11.0938 1.91016C10.2969 1.16797 9.35156 0.78125 8.25781 0.75H8.23438C7.125 0.78125 6.17188 1.17578 5.375 1.93359C4.57812 2.69141 4.125 3.61719 4.01562 4.71094V4.99219C4.01562 5.39844 4.09375 5.78516 4.25 6.15234C4.40625 6.51953 4.61719 6.83594 4.88281 7.10156C5.27344 7.47656 5.72656 7.76562 6.24219 7.96875C6.75781 8.17188 7.30469 8.27344 7.88281 8.27344H8.23438C8.29688 8.27344 8.35547 8.27734 8.41016 8.28516C8.46484 8.29297 8.52344 8.29688 8.58594 8.29688ZM8.25781 20.7422L8.72656 20.7383C9.03906 20.7331 9.35156 20.7227 9.66406 20.707C10.1328 20.6836 10.5938 20.6484 11.0469 20.6016H10.9297C10.2578 20.0078 9.72656 19.293 9.33594 18.457C8.94531 17.6211 8.75 16.7188 8.75 15.75L8.75781 15.4191C8.79948 14.5434 9.00781 13.7201 9.38281 12.9492C9.80469 12.082 10.375 11.3516 11.0938 10.7578H4.74219C4.11719 10.7578 3.53125 10.9219 2.98438 11.25C2.4375 11.5625 1.96094 12.0039 1.55469 12.5742C1.14844 13.1445 0.828125 13.8203 0.59375 14.6016C0.359375 15.3672 0.242188 16.1953 0.242188 17.0859V18.2578C0.242188 18.3047 0.25 18.3516 0.265625 18.3984L0.3125 18.5391C0.34375 18.6484 0.390625 18.7422 0.453125 18.8203C0.515625 18.8984 0.585938 18.9688 0.664062 19.0312C0.929688 19.2812 1.30469 19.5156 1.78906 19.7344C2.28906 19.9375 2.86719 20.1133 3.52344 20.2617C4.17969 20.4102 4.91406 20.5312 5.72656 20.625C6.52344 20.7031 7.36719 20.7422 8.25781 20.7422ZM21.3477 13.0312C21.1992 13.1719 21.0234 13.2422 20.8203 13.2422H12.8281C12.625 13.2422 12.4492 13.1719 12.3008 13.0312C12.1523 12.8906 12.0781 12.7109 12.0781 12.4922C12.0781 12.2891 12.1523 12.1133 12.3008 11.9648C12.4492 11.8164 12.625 11.7422 12.8281 11.7422H20.8203C21.0234 11.7422 21.1992 11.8164 21.3477 11.9648C21.4961 12.1133 21.5703 12.2891 21.5703 12.4922C21.5703 12.7109 21.4961 12.8906 21.3477 13.0312ZM20.8203 16.5C21.0234 16.5 21.1992 16.4258 21.3477 16.2773C21.4961 16.1289 21.5703 15.9531 21.5703 15.75C21.5703 15.5469 21.4961 15.3711 21.3477 15.2227C21.1992 15.0742 21.0234 15 20.8203 15H12.8281C12.625 15 12.4492 15.0742 12.3008 15.2227C12.1523 15.3711 12.0781 15.5469 12.0781 15.75C12.0781 15.9531 12.1523 16.1289 12.3008 16.2773C12.4492 16.4258 12.625 16.5 12.8281 16.5H20.8203ZM21.3477 19.5352C21.1992 19.6836 21.0234 19.7578 20.8203 19.7578H12.8281C12.625 19.7578 12.4492 19.6836 12.3008 19.5352C12.1523 19.3867 12.0781 19.2109 12.0781 19.0078C12.0781 18.7891 12.1523 18.6094 12.3008 18.4688C12.4492 18.3281 12.625 18.2578 12.8281 18.2578H20.8203C21.0234 18.2578 21.1992 18.3281 21.3477 18.4688C21.4961 18.6094 21.5703 18.7891 21.5703 19.0078C21.5703 19.2109 21.4961 19.3867 21.3477 19.5352Z" style="fill: rgb(219, 41, 102); fill-opacity: 0.1;"/>
</svg>