<svg width="18" height="20" viewBox="0 0 18 20" fill="none" xmlns="http://www.w3.org/2000/svg">
<path opacity="0.199102" fill-rule="evenodd" clip-rule="evenodd" d="M13.3682 19.8818C13.7373 19.8818 14.0825 19.8135 14.4038 19.6768C14.7251 19.54 15.002 19.3486 15.2344 19.1025C15.4668 18.8701 15.6514 18.5933 15.7881 18.272C15.9248 17.9507 15.9932 17.6123 15.9932 17.2568V5.875H16.875C17.1211 5.875 17.3296 5.78955 17.5005 5.61865C17.6714 5.44775 17.7568 5.23926 17.7568 4.99316C17.7568 4.76074 17.6714 4.55908 17.5005 4.38818C17.3296 4.21729 17.1211 4.13184 16.875 4.13184H13.3682V3.25C13.3682 2.89453 13.2998 2.55615 13.1631 2.23486C13.0264 1.91357 12.8418 1.63672 12.6094 1.4043C12.3633 1.1582 12.083 0.966797 11.7686 0.830078C11.4541 0.693359 11.1123 0.625 10.7432 0.625H7.25684C6.8877 0.625 6.54248 0.693359 6.22119 0.830078C5.8999 0.966797 5.62305 1.1582 5.39062 1.4043C5.1582 1.63672 4.97363 1.91357 4.83691 2.23486C4.7002 2.55615 4.63184 2.89453 4.63184 3.25V4.13184H1.125C0.878906 4.13184 0.67041 4.21729 0.499512 4.38818C0.328613 4.55908 0.243164 4.76074 0.243164 4.99316C0.243164 5.23926 0.328613 5.44775 0.499512 5.61865C0.67041 5.78955 0.878906 5.875 1.125 5.875H2.00684V17.2568C2.00684 17.6123 2.0752 17.9507 2.21191 18.272C2.34863 18.5933 2.5332 18.8701 2.76562 19.1025C3.01172 19.335 3.29199 19.5229 3.60645 19.6665C3.9209 19.8101 4.2627 19.8818 4.63184 19.8818H13.3682ZM11.625 4.13184H6.375V3.25C6.375 3.12695 6.39893 3.01416 6.44678 2.91162C6.49463 2.80908 6.55957 2.7168 6.6416 2.63477C6.70996 2.55273 6.79883 2.48779 6.9082 2.43994C7.01758 2.39209 7.13379 2.36816 7.25684 2.36816H10.7432C10.8662 2.36816 10.9824 2.39209 11.0918 2.43994C11.2012 2.48779 11.29 2.55273 11.3584 2.63477C11.4404 2.7168 11.5054 2.80908 11.5532 2.91162C11.6011 3.01416 11.625 3.12695 11.625 3.25V4.13184ZM4.63184 18.1182H13.3682C13.4912 18.1182 13.6074 18.0977 13.7168 18.0566C13.8262 18.0156 13.915 17.9541 13.9834 17.8721C14.0654 17.79 14.1304 17.6943 14.1782 17.585C14.2261 17.4756 14.25 17.3662 14.25 17.2568V5.875H3.75V17.2568C3.75 17.3662 3.77393 17.4756 3.82178 17.585C3.86963 17.6943 3.93457 17.79 4.0166 17.8721C4.08496 17.9541 4.17383 18.0156 4.2832 18.0566C4.39258 18.0977 4.50879 18.1182 4.63184 18.1182ZM7.25684 15.4932C7.48926 15.4932 7.69092 15.4077 7.86182 15.2368C8.03271 15.0659 8.11816 14.8643 8.11816 14.6318V9.38184C8.11816 9.13574 8.03271 8.92725 7.86182 8.75635C7.69092 8.58545 7.48926 8.5 7.25684 8.5C7.01074 8.5 6.80225 8.58545 6.63135 8.75635C6.46045 8.92725 6.375 9.13574 6.375 9.38184V14.6318C6.375 14.8643 6.46045 15.0659 6.63135 15.2368C6.80225 15.4077 7.01074 15.4932 7.25684 15.4932ZM11.3687 15.2368C11.1978 15.4077 10.9893 15.4932 10.7432 15.4932C10.5107 15.4932 10.3091 15.4077 10.1382 15.2368C9.96729 15.0659 9.88184 14.8643 9.88184 14.6318V9.38184C9.88184 9.13574 9.96729 8.92725 10.1382 8.75635C10.3091 8.58545 10.5107 8.5 10.7432 8.5C10.9893 8.5 11.1978 8.58545 11.3687 8.75635C11.5396 8.92725 11.625 9.13574 11.625 9.38184V14.6318C11.625 14.8643 11.5396 15.0659 11.3687 15.2368Z" fill="#4D244A"/>
</svg>
