<svg width="18" height="19" viewBox="0 0 18 19" fill="none" xmlns="http://www.w3.org/2000/svg">
<path fill-rule="evenodd" clip-rule="evenodd" d="M14.7148 19C15.4167 19 16.0146 18.7493 16.5088 18.248C16.9535 17.7969 17.1981 17.2645 17.2426 16.6509L17.25 16.4434V7.35547C17.25 7.21224 17.2178 7.07975 17.1533 6.95801C17.0889 6.83626 17.0065 6.73242 16.9062 6.64648L9.55859 0.867188C9.48698 0.809896 9.40462 0.763346 9.31152 0.727539C9.21842 0.691732 9.11458 0.673828 9 0.673828C8.88542 0.673828 8.78158 0.691732 8.68848 0.727539C8.59538 0.763346 8.50586 0.809896 8.41992 0.867188H8.44141L1.09375 6.64648C0.99349 6.73242 0.911133 6.83626 0.84668 6.95801C0.79834 7.04932 0.768127 7.14667 0.756042 7.25006L0.75 7.35547V16.4434C0.75 17.1452 0.99707 17.7467 1.49121 18.248C1.98535 18.7493 2.58333 19 3.28516 19H14.7148ZM5.32617 17.1738H3.28516C3.09896 17.1595 2.93424 17.0843 2.79102 16.9482C2.67643 16.8394 2.60768 16.7099 2.58477 16.5598L2.57617 16.4434V7.80664L9 2.75781L15.4238 7.80664V16.4434C15.4238 16.6439 15.3522 16.8122 15.209 16.9482C15.0658 17.0843 14.901 17.1595 14.7148 17.1738H12.6738V9.82617C12.6738 9.58268 12.5843 9.37142 12.4053 9.19238C12.2262 9.01335 12.0078 8.92383 11.75 8.92383H6.25C5.99219 8.92383 5.77376 9.01335 5.59473 9.19238C5.41569 9.37142 5.32617 9.58268 5.32617 9.82617V17.1738ZM7.17383 10.75V17.1738H10.8262V10.75H7.17383Z" fill="#DB2966"/>
</svg>
