<svg width="14" height="11" viewBox="0 0 14 11" fill="none" xmlns="http://www.w3.org/2000/svg">
<path fill-rule="evenodd" clip-rule="evenodd" d="M2.85906 10.6641L2.75 10.6719C2.65625 10.6719 2.56771 10.651 2.48438 10.6094C2.40104 10.5677 2.32812 10.5156 2.26562 10.4531C1.96354 10.1094 1.69271 9.74479 1.45312 9.35938C1.22396 8.96354 1.02604 8.54948 0.859375 8.11719C0.692708 7.6849 0.5625 7.23438 0.46875 6.76562C0.385417 6.29688 0.34375 5.81771 0.34375 5.32812C0.34375 4.83854 0.385417 4.35938 0.46875 3.89062C0.5625 3.43229 0.692708 2.98698 0.859375 2.55469C1.02604 2.1224 1.22917 1.70833 1.46875 1.3125C1.70833 0.916667 1.97396 0.546875 2.26562 0.203125V0.21875C2.32812 0.15625 2.40104 0.104167 2.48438 0.0625C2.56771 0.0208333 2.65625 0 2.75 0C2.9375 0 3.09635 0.0651042 3.22656 0.195312C3.35677 0.325521 3.42188 0.484375 3.42188 0.671875C3.42188 0.755208 3.40625 0.835938 3.375 0.914062C3.34375 0.992188 3.30208 1.05729 3.25 1.10938C2.76042 1.67188 2.375 2.3151 2.09375 3.03906C1.8125 3.76302 1.67188 4.52604 1.67188 5.32812C1.67188 6.14062 1.8125 6.90885 2.09375 7.63281C2.375 8.35677 2.76042 9 3.25 9.5625V9.54688C3.30208 9.60938 3.34375 9.67969 3.375 9.75781C3.40625 9.83594 3.42188 9.91667 3.42188 10C3.42188 10.1875 3.35677 10.3464 3.22656 10.4766C3.1224 10.5807 2.9999 10.6432 2.85906 10.6641ZM11.342 10.6649L11.25 10.6719C11.0625 10.6719 10.9036 10.6068 10.7734 10.4766C10.6432 10.3464 10.5781 10.1875 10.5781 10C10.5781 9.91667 10.5938 9.83594 10.625 9.75781C10.6562 9.67969 10.6979 9.60938 10.75 9.54688C11.2396 8.99479 11.625 8.35677 11.9062 7.63281C12.1875 6.90885 12.3281 6.14062 12.3281 5.32812C12.3281 4.52604 12.1875 3.76302 11.9062 3.03906C11.625 2.3151 11.2396 1.67188 10.75 1.10938C10.6979 1.05729 10.6562 0.992188 10.625 0.914062C10.5938 0.835938 10.5781 0.755208 10.5781 0.671875C10.5781 0.484375 10.6432 0.325521 10.7734 0.195312C10.9036 0.0651042 11.0625 0 11.25 0C11.3438 0 11.4323 0.0182292 11.5156 0.0546875C11.599 0.0911458 11.6719 0.145833 11.7344 0.21875C12.0365 0.5625 12.3073 0.927083 12.5469 1.3125C12.776 1.70833 12.974 2.1224 13.1406 2.55469C13.3073 2.98698 13.4375 3.43229 13.5312 3.89062C13.6146 4.35938 13.6562 4.83854 13.6562 5.32812C13.6562 5.81771 13.6146 6.29688 13.5312 6.76562C13.4375 7.23438 13.3073 7.6849 13.1406 8.11719C12.974 8.54948 12.7708 8.96354 12.5312 9.35938C12.2917 9.74479 12.026 10.1094 11.7344 10.4531C11.6719 10.5156 11.599 10.5677 11.5156 10.6094C11.4601 10.6372 11.4022 10.6557 11.342 10.6649ZM4.45312 8.79688L4.56219 8.78906C4.70302 8.76823 4.82552 8.70573 4.92969 8.60156C5.0599 8.47135 5.125 8.3125 5.125 8.125C5.125 8.04167 5.10938 7.96094 5.07812 7.88281C5.04688 7.80469 5.00521 7.73958 4.95312 7.6875C4.68229 7.375 4.46615 7.01562 4.30469 6.60938C4.14323 6.20312 4.0625 5.77604 4.0625 5.32812C4.0625 4.88021 4.14062 4.45833 4.29688 4.0625C4.45312 3.66667 4.66146 3.3125 4.92188 3L4.9375 2.98438L4.95312 2.96875C4.96354 2.95833 4.97396 2.94271 4.98438 2.92188C5.02604 2.86979 5.0599 2.8099 5.08594 2.74219C5.11198 2.67448 5.125 2.60417 5.125 2.53125C5.125 2.34375 5.0599 2.1849 4.92969 2.05469C4.79948 1.92448 4.64062 1.85938 4.45312 1.85938C4.35938 1.85938 4.26823 1.88021 4.17969 1.92188C4.09115 1.96354 4.01562 2.01562 3.95312 2.07812H3.96875C3.58333 2.51562 3.28125 3.01042 3.0625 3.5625C2.84375 4.11458 2.73438 4.70312 2.73438 5.32812C2.73438 5.95312 2.84375 6.54427 3.0625 7.10156C3.28125 7.65885 3.58333 8.15104 3.96875 8.57812C4.02083 8.65104 4.09115 8.70573 4.17969 8.74219C4.26823 8.77865 4.35938 8.79688 4.45312 8.79688ZM9.63976 8.7908L9.54688 8.79688C9.35938 8.79688 9.20052 8.73177 9.07031 8.60156C8.9401 8.47135 8.875 8.31771 8.875 8.14062C8.875 8.06771 8.88802 7.9974 8.91406 7.92969C8.9401 7.86198 8.97396 7.79688 9.01562 7.73438L9.07812 7.67188C9.33854 7.35938 9.54688 7.0026 9.70312 6.60156C9.85938 6.20052 9.9375 5.78125 9.9375 5.34375C9.9375 4.88542 9.85938 4.45573 9.70312 4.05469C9.54688 3.65365 9.32812 3.29688 9.04688 2.98438C8.99479 2.92188 8.95312 2.85417 8.92188 2.78125C8.89062 2.70833 8.875 2.625 8.875 2.53125C8.875 2.35417 8.9401 2.20052 9.07031 2.07031C9.20052 1.9401 9.35938 1.875 9.54688 1.875C9.64062 1.875 9.73177 1.89323 9.82031 1.92969C9.90885 1.96615 9.97917 2.01562 10.0312 2.07812V2.09375C10.4167 2.52083 10.7188 3.01302 10.9375 3.57031C11.1562 4.1276 11.2656 4.71875 11.2656 5.34375C11.2656 5.95833 11.1562 6.54427 10.9375 7.10156C10.7188 7.65885 10.4167 8.15625 10.0312 8.59375L10.0469 8.57812C9.98438 8.65104 9.90885 8.70573 9.82031 8.74219C9.76128 8.76649 9.7011 8.7827 9.63976 8.7908ZM7 7.32812C7.55208 7.32812 8.02344 7.13281 8.41406 6.74219C8.80469 6.35156 9 5.88021 9 5.32812C9 4.77604 8.80469 4.30469 8.41406 3.91406C8.02344 3.52344 7.55208 3.32812 7 3.32812C6.44792 3.32812 5.97656 3.52344 5.58594 3.91406C5.19531 4.30469 5 4.77604 5 5.32812C5 5.88021 5.19531 6.35156 5.58594 6.74219C5.97656 7.13281 6.44792 7.32812 7 7.32812ZM6.52344 5.80469C6.65365 5.9349 6.8125 6 7 6C7.1875 6 7.34635 5.9349 7.47656 5.80469C7.60677 5.67448 7.67188 5.51562 7.67188 5.32812C7.67188 5.15104 7.60677 4.9974 7.47656 4.86719C7.34635 4.73698 7.1875 4.67188 7 4.67188C6.8125 4.67188 6.65365 4.73698 6.52344 4.86719C6.39323 4.9974 6.32812 5.15104 6.32812 5.32812C6.32812 5.51562 6.39323 5.67448 6.52344 5.80469Z" fill="#DB2966"/>
</svg>
