<?xml version="1.0" encoding="UTF-8"?>
<svg width="414px" height="915px" viewBox="0 0 414 915" version="1.1" xmlns="http://www.w3.org/2000/svg" xmlns:xlink="http://www.w3.org/1999/xlink">
    <!-- Generator: Sketch 63.1 (92452) - https://sketch.com -->
    <title>Fill 1</title>
    <desc>Created with Sketch.</desc>
    <g id="Page-1" stroke="none" stroke-width="1" fill="none" fill-rule="evenodd">
        <g id="1" fill="#FFFFFF">
            <g id="Group-3" transform="translate(-961.000000, -316.000000)">
                <path d="M2066.688,439.267 L2079.287,344.483 L2098.753,346.88 L2086.079,442.013 L2066.688,439.267 Z M2070.281,560.597 L2050.886,558.151 L2065.009,451.901 L2084.396,454.646 L2070.281,560.597 Z M2060.966,630.519 L1992.312,620.94 L1999.059,577.303 L2066.916,585.859 L2060.966,630.519 Z M2045.489,746.695 L1974.38,736.905 L1990.365,633.533 L2059.284,643.148 L2045.489,746.695 Z M2038.063,802.435 L1965.888,791.827 L1973.894,740.052 L2045.068,749.851 L2038.063,802.435 Z M2031.541,851.394 L1958.197,841.569 L1965.401,794.977 L2037.642,805.595 L2031.541,851.394 Z M2022.457,919.572 L1951.263,886.414 L1957.71,844.715 L2031.12,854.548 L2022.457,919.572 Z M1987.062,1185.251 C1904.079,1184.857 1800.806,1122.341 1794.076,1118.21 L1623.035,977.348 L1634.347,862.07 L1946.255,901.652 L2020.253,936.116 L1987.062,1185.251 Z M1979.057,1245.333 L1934.169,1246.995 L1605.959,1200.999 L1527.202,1100.729 L1527.202,1018.012 L1478.689,953.624 L1410.515,899.104 L1402.557,909.053 L1469.474,962.571 L1514.459,1022.274 L1514.459,1105.134 L1587.75,1198.448 L1536.65,1191.287 L1456.122,1124.207 L1253.959,1064.225 L1249.382,1066.618 C1239.647,1071.706 1229.001,1077.254 1217.897,1083.026 L1193.966,1053.355 L1118.447,1075.971 L1114.824,1046.461 L1102.174,1048.017 L1108.995,1103.551 L1031.427,1131.882 L1031.595,1132.156 L915.763,1199.764 L900.932,1199.764 L879.147,1227.801 L867.247,1209.95 L841.842,1072.342 L840.884,1069.797 C882.716,1052.435 917.843,1037.629 927.42,1033.587 L1477.292,842.139 L1621.702,860.465 L1609.689,982.868 L1786.308,1128.321 L1786.98,1128.803 C1788.137,1129.528 1815.778,1146.728 1854.842,1163.988 C1904.82,1186.066 1948.675,1197.47 1985.365,1197.991 L1979.057,1245.333 Z M1125.179,1130.801 L1118.84,1079.176 L1192.828,1057.02 L1215.012,1084.525 C1185.532,1099.839 1153.036,1116.608 1125.179,1130.801 L1125.179,1130.801 Z M1140.05,1212.354 L1111.302,1307.362 L1028.489,1230.533 C1047.495,1207.976 1061.765,1191.674 1066.442,1187.634 C1072.811,1185.228 1086.899,1178.769 1121.036,1161.563 L1140.05,1212.354 Z M1065.91,1187.83 C1065.061,1188.265 1063.721,1188.769 1062.023,1188.97 C1062.835,1188.839 1063.986,1188.537 1065.91,1187.83 L1065.91,1187.83 Z M1058.505,1163.655 C1057.504,1163.752 1056.477,1163.999 1055.249,1164.592 L1036.181,1133.538 L1109.394,1106.798 L1113.096,1136.944 C1085.698,1150.835 1064.585,1161.274 1058.505,1163.655 L1058.505,1163.655 Z M1006.793,1216.691 L963.366,1199.764 L922.08,1199.764 L1033.262,1134.87 L1052.536,1166.258 C1046.263,1170.821 1034.834,1183.218 1006.793,1216.691 L1006.793,1216.691 Z M983.678,1244.491 C963.749,1268.592 943.994,1292.877 932.217,1307.408 L886.599,1238.978 L907.167,1212.506 L960.971,1212.506 L998.177,1227.01 C993.707,1232.38 988.902,1238.172 983.678,1244.491 L983.678,1244.491 Z M821.326,1302.216 L743.441,1109.702 C766.798,1100.319 792.538,1089.784 817.261,1079.577 L843.136,1219.73 L862.662,1249.018 L821.326,1302.216 Z M675.636,916.061 L746.119,890.438 L811.703,1064.621 C785.803,1075.31 760.368,1085.711 737.859,1094.773 L675.636,916.061 Z M658.74,1124.584 C649.231,1125.835 643.008,1119.581 640.3,1116.041 C641.404,1110.843 642.291,1104.808 642.765,1097.697 C645.002,1064.182 583.168,966.27 575.347,954.035 L476.555,773.629 L384.446,677.427 L460.434,635.434 L471.407,665.346 L556.253,740.815 L538.433,747.233 L542.75,759.223 L597.317,739.57 L723.058,1100.707 C688.707,1114.415 663.667,1123.911 658.74,1124.584 L658.74,1124.584 Z M626.874,1096.638 C625.396,1118.801 619.638,1128.171 617.669,1130.79 L609.174,1133.307 L611.302,1131.791 L565,1066.793 L611.908,1051.484 C621.229,1071.164 627.449,1088.006 626.874,1096.638 L626.874,1096.638 Z M546.333,1151.924 L502.148,1087.308 L561.833,1067.828 L608.593,1133.479 L546.333,1151.924 Z M501.835,1165.108 L472.306,1201.173 L485.555,1277.558 L437.015,1302.668 L299.062,1276.206 L263.706,1235.609 L-82.05,1145.058 L-124.931,1100.911 C-92.958,993.296 -40.791,816.373 -32.017,778.358 C-24.75,746.863 -31.133,704.781 -39.219,651.505 C-43.165,625.507 -47.415,597.37 -50.576,567.2 C-38.598,569.208 -26.709,571.534 -14.9,574.123 L85.444,807.968 L201.5,1052.583 L217.738,1080.775 L359.564,1122.686 L359.992,1122.814 L448.986,1099.258 L450.572,1104.142 L498.994,1088.337 L543.125,1152.875 L501.835,1165.108 Z M452.514,1331.362 C318.887,1303.609 194.917,1307.711 82.041,1313.992 L-64.891,1162.723 L256.675,1246.939 L292.342,1287.892 L438.95,1316.015 L482.657,1293.404 L452.514,1331.362 Z M50.396,1315.8 C14.417,1317.887 -19.567,1319.86 -53.57,1320.933 C-104.456,1322.541 -138.297,1311.078 -154.073,1286.865 C-160.21,1277.445 -163.171,1266.737 -164.159,1255.902 C-164.137,1251.662 -164.205,1247.322 -164.375,1242.866 L7.501,1242.866 L7.501,1241.828 L77.826,1314.228 C68.611,1314.746 59.461,1315.274 50.396,1315.8 L50.396,1315.8 Z M-150.358,1185.861 L-149.904,1184.685 C-149.064,1181.879 -144.511,1166.668 -137.655,1143.666 L-70.851,1161.162 L5.416,1239.68 L-164.272,1239.68 C-162.362,1211.383 -150.545,1186.248 -150.358,1185.861 L-150.358,1185.861 Z M-125.972,1104.414 L-88.01,1143.496 L-134.015,1131.449 C-131.539,1123.132 -128.843,1114.075 -125.972,1104.414 L-125.972,1104.414 Z M368.3,809.657 L351.544,758.08 L351.161,756.908 L316.215,715.133 L370.028,685.394 L457.163,776.406 L368.3,809.657 Z M429.244,997.25 L372.241,821.788 L465.631,786.842 L557.689,954.949 L429.244,997.25 Z M514.004,982.751 L564.217,966.213 C577.35,987.003 593.585,1014.818 606.248,1039.927 L557.74,1055.76 L514.004,982.751 Z M486.557,991.79 L510.904,983.772 L554.64,1056.772 L497.523,1075.414 L486.557,991.79 Z M433.181,1009.37 L483.478,992.805 L494.443,1076.42 L458.748,1088.071 L433.181,1009.37 Z M419.696,1009.101 L448,1096.224 L360.038,1119.503 L223.928,1079.283 L419.696,1009.101 Z M117.597,663.1 L201.427,850.016 L204.333,848.709 L183.136,801.446 L268.613,766.71 L287.393,780.529 L321.508,741.32 L339.806,763.192 L418.711,1006.069 L219.516,1077.479 L204.319,1051.106 L88.346,806.658 L16.973,640.323 L117.597,663.1 Z M150.538,728.763 L119.853,660.343 L15.421,636.708 L-11.059,574.996 C62.588,591.562 132.845,619.378 198.534,658.194 L241.477,683.569 L150.538,728.763 Z M244.362,685.274 L304.206,720.637 L319.438,738.845 L286.917,776.223 L269.064,763.089 L181.832,798.538 L151.843,731.672 L244.529,685.61 L244.362,685.274 Z M-54.948,506.279 C-57.914,421.142 -47.735,376.652 -22.007,331.305 L90.764,377.196 L175.205,408.309 L257.391,369.377 L286.658,373.37 L275.521,460.753 L370.642,518.234 C371.314,518.62 438.256,557.404 454.888,620.301 L305.464,702.88 L206.635,644.481 C126.365,597.048 39.435,565.641 -52.139,550.82 C-53.408,536.402 -54.414,521.588 -54.948,506.279 L-54.948,506.279 Z M-87.482,287.466 L-211.681,253.546 L-4.318,85.156 L42.892,91.715 C42.593,128.651 37.726,217.502 0.045,269.316 C-10.802,284.229 -20.351,297.947 -28.672,311.399 L-87.482,287.466 Z M58.841,93.931 L296.161,126.9 L267.621,213.62 L251.285,316.615 L251.255,316.795 L253.951,353.385 L174.433,391.049 L96.519,362.347 L-13.729,317.48 C-5.989,305.176 2.868,292.513 12.924,278.686 C34.673,248.784 48.965,205.19 55.401,149.121 C57.938,127.025 58.696,107.52 58.841,93.931 L58.841,93.931 Z M317.688,129.891 L306.34,218.937 L271.28,212.626 L299.367,127.346 L317.688,129.891 Z M383.895,231.389 L370.657,323.874 L306.807,316.069 L318.548,223.952 L383.895,231.389 Z M330.313,131.645 L396.849,140.889 L384.346,228.235 L318.95,220.793 L330.313,131.645 Z M481.597,152.662 L470.348,238.022 L387.514,228.596 L400.005,141.327 L481.597,152.662 Z M373.821,324.261 L387.063,231.75 L469.932,241.182 L457.633,334.508 L373.821,324.261 Z M489.142,372.806 L433.692,435.436 L363.817,394.154 L373.371,327.408 L457.217,337.664 L456.57,342.574 L461.504,347.059 C469.89,354.683 479.312,363.448 489.142,372.806 L489.142,372.806 Z M506.84,156.169 L653.918,176.602 L642.739,260.455 L528.947,243.607 L527.081,256.213 L641.054,273.088 L629.076,362.945 L499.777,347.785 C493.081,341.481 487.48,336.296 483.577,332.708 L506.84,156.169 Z M667.056,174.485 L668.613,173.2 L773.421,279.805 L655.346,262.322 L667.056,174.485 Z M743.717,111.188 L793.261,160.734 L776.689,278.585 L671.078,171.163 L743.717,111.188 Z M751.07,88.592 L747.004,91.949 L742.15,87.095 L751.07,88.592 Z M767.702,91.384 L845.706,104.475 L959.042,121.154 L936.279,303.918 L860.508,292.699 L809.42,160.216 L810.142,155.084 L756.055,101 L767.702,91.384 Z M1014.773,129.355 L988.258,311.614 L939.428,304.384 L962.194,121.618 L1014.773,129.355 Z M1059.704,135.968 L1036.616,318.774 L991.41,312.081 L1017.926,129.82 L1059.704,135.968 Z M1072.314,137.823 L1171.008,152.348 L1145.81,334.942 L1049.224,320.641 L1072.314,137.823 Z M1183.617,154.202 L1280.653,168.483 L1250.17,350.394 L1158.417,336.808 L1183.617,154.202 Z M1145.501,430.405 L1156.674,349.432 L1248.064,362.964 L1234.536,443.7 L1145.501,430.405 Z M1287.623,470.188 L1298.484,473.495 L1159.474,523.56 L1140.122,469.376 L1142.016,455.652 L1238.426,470.049 L1287.623,470.188 Z M1384.224,499.59 L1385.263,499.905 L1401.856,501.997 L1396.447,540.806 L1192.05,614.776 L1163.759,535.561 L1314.796,481.164 L1313.703,478.126 L1384.224,499.59 Z M1407.717,552.238 L1497.206,564.724 L1492.459,604.312 L1438.324,714.888 L1399.424,611.747 L1407.717,552.238 Z M1414.497,503.591 L1503.194,514.775 L1498.722,552.072 L1409.476,539.62 L1414.497,503.591 Z M1460.495,173.517 L1544.602,183.842 L1503.243,489.095 L1418.015,478.348 L1460.495,173.517 Z M1577.56,187.887 L1533.762,492.944 L1506.402,489.494 L1547.762,184.229 L1577.56,187.887 Z M1580.18,281.723 L1696.842,298.36 L1673.879,469.372 L1590.04,460.375 L1555.119,456.271 L1580.18,281.723 Z M1593.374,189.828 L1709.501,204.082 L1697.266,295.202 L1580.632,278.568 L1593.374,189.828 Z M1712.66,204.47 L1795.749,214.668 L1782.379,307.341 L1700.417,295.652 L1712.66,204.47 Z M1767.994,407.063 L1767.527,407.036 L1760.879,478.709 L1677.045,469.712 L1699.993,298.809 L1781.924,310.494 L1767.994,407.063 Z M1884.26,426.668 L1868.919,535.205 L1769.596,522.682 L1779.075,420.481 L1884.26,426.668 Z M1896.929,428.098 L1965.14,437.758 L1948.011,545.179 L1881.565,536.8 L1896.929,428.098 Z M1911.664,323.842 L1981.924,332.494 L1967.147,425.17 L1898.712,415.478 L1911.664,323.842 Z M1940.12,122.514 L2013.823,132.447 L1982.426,329.347 L1912.11,320.688 L1940.12,122.514 Z M2016.983,132.873 L2125.319,147.473 L2108.08,276.872 L1995.905,265.065 L2016.983,132.873 Z M2030.472,434.138 L2044.257,340.169 L2076.122,344.093 L2063.532,438.82 L2030.472,434.138 Z M2028.623,446.748 L2061.852,451.454 L2047.723,557.752 L2012.982,553.371 L2028.623,446.748 Z M1979.051,549.093 L1995.136,442.005 L2025.466,446.301 L2009.818,552.973 L1979.051,549.093 Z M1991.984,441.559 L1975.891,548.694 L1951.177,545.578 L1968.297,438.205 L1991.984,441.559 Z M2007.886,335.691 L1993.876,428.955 L1970.305,425.617 L1985.09,332.884 L2007.886,335.691 Z M2008.359,332.54 L1985.592,329.737 L1995.402,268.214 L2017.669,270.558 L2008.359,332.54 Z M2041.092,339.78 L2027.317,433.691 L1997.029,429.402 L2011.046,336.08 L2041.092,339.78 Z M2011.52,332.929 L2020.838,270.892 L2050.737,274.039 L2041.555,336.627 L2011.52,332.929 Z M1895.973,607.498 L1902.267,565.097 L1995.897,576.904 L1989.157,620.5 L1895.973,607.498 Z M1878.722,723.733 L1894.103,620.101 L1987.209,633.092 L1971.225,736.47 L1878.722,723.733 Z M1870.693,777.835 L1878.255,726.883 L1970.738,739.617 L1962.737,791.364 L1870.693,777.835 Z M1863.125,828.833 L1870.225,780.989 L1962.25,794.514 L1955.039,841.146 L1863.125,828.833 Z M1862.657,831.982 L1954.553,844.291 L1948.129,885.836 L1856.392,874.194 L1862.657,831.982 Z M1774.707,820.201 L1859.501,831.559 L1853.234,873.792 L1769.395,863.153 L1774.707,820.201 Z M1601.207,579.234 L1788.436,605.358 L1756.751,861.548 L1569.551,837.791 L1601.207,579.234 Z M1594.845,526.332 L1590.131,564.826 L1511.343,553.833 L1515.834,516.369 L1594.845,526.332 Z M1581.795,499 L1549.568,494.936 L1554.667,459.422 L1588.106,463.352 L1581.795,499 Z M1668.435,509.925 L1584.959,499.399 L1591.278,463.711 L1673.456,472.531 L1668.435,509.925 Z M1756.949,521.086 L1671.592,510.323 L1676.622,472.87 L1760.585,481.882 L1756.949,521.086 Z M1790.001,592.713 L1602.755,566.587 L1607.489,527.927 L1795.087,551.582 L1790.001,592.713 Z M1867.076,780.526 L1859.969,828.411 L1775.098,817.042 L1781.175,767.901 L1867.076,780.526 Z M1781.567,764.736 L1787.789,714.427 L1875.102,726.45 L1867.543,777.372 L1781.567,764.736 Z M1802.626,594.474 L1807.733,553.177 L1899.108,564.699 L1892.822,607.059 L1802.626,594.474 Z M1890.951,619.662 L1875.569,723.299 L1788.18,711.267 L1801.06,607.12 L1890.951,619.662 Z M1444.498,731.256 L1504.852,607.976 L1509.827,566.485 L1588.584,577.474 L1556.909,836.187 L1480.411,826.479 L1444.498,731.256 Z M1258.626,801.187 L1432.178,734.697 L1467.61,828.646 L1290.461,890.324 L1258.626,801.187 Z M1080.663,869.368 L1246.723,805.747 L1278.425,894.515 L1111.732,952.552 L1080.663,869.368 Z M949.504,816.5 L1035.619,785.195 L1099.692,956.745 L1012.164,987.219 L949.504,816.5 Z M862.332,848.19 L946.509,817.589 L1009.153,988.267 L922.121,1018.569 L862.332,848.19 Z M847.362,853.632 L907.406,1024.736 C885.125,1034.111 860.334,1044.474 835.264,1054.872 L770.072,881.73 L847.362,853.632 Z M830.61,805.895 L846.308,850.627 L768.95,878.749 L752.196,834.253 L830.61,805.895 Z M736.708,793.118 L816.05,764.404 L829.557,802.891 L751.074,831.275 L736.708,793.118 Z M728.229,842.921 L744.997,887.457 L674.588,913.053 L658.9,867.995 L728.229,842.921 Z M712.742,801.791 L727.107,839.943 L657.854,864.989 L644.454,826.504 L712.742,801.791 Z M678.329,710.393 L708.251,789.864 L640.263,814.468 L612.306,734.172 L678.329,710.393 Z M559.332,582.028 L621.388,559.164 L673.837,698.465 L608.115,722.136 L559.332,582.028 Z M544.822,588.799 L593.127,727.534 L569.898,735.9 L482.264,657.948 L471.7,629.208 L544.822,588.799 Z M588.656,483.314 C597.878,507.913 609.09,532.145 615.02,544.537 L553.06,567.364 C522.086,510.151 462.588,458.169 444.148,442.849 L498.347,381.632 C538.556,420.443 582.2,466.1 588.656,483.314 L588.656,483.314 Z M760.85,391.225 L746.331,494.477 L638.982,535.55 C633.588,524.339 621.837,499.225 612.517,474.367 C603.444,450.168 551.859,397.717 515.155,362.417 L760.85,391.225 Z M762.625,378.603 L641.733,364.429 L653.661,274.955 L774.68,292.873 L762.625,378.603 Z M895.49,418.839 L907.974,451.214 L853.102,473.038 L845.23,539.152 L761.526,533.518 L761.526,500.794 L775.569,400.932 L895.49,418.839 Z M919.743,396.694 L899.439,393.662 L865.775,306.361 L934.346,316.514 L919.743,396.694 Z M975.359,404.999 L922.894,397.164 L937.496,316.98 L986.481,324.233 L975.359,404.999 Z M1024.792,412.38 L978.509,405.469 L989.633,324.7 L1035.018,331.42 L1024.792,412.38 Z M1010.098,680.625 L979.719,601.845 L1151.771,539.879 L1180.069,619.113 L1010.098,680.625 Z M1198.102,669.605 L1028.907,730.795 L1014.619,692.542 L1184.355,631.114 L1198.102,669.605 Z M1388.073,600.9 L1210.084,665.271 L1196.337,626.778 L1394.459,555.078 L1388.073,600.9 Z M1226.874,712.279 L1211.155,668.268 L1387.577,604.464 L1386.359,613.203 L1399.989,649.345 L1226.874,712.279 Z M1227.945,715.278 L1401.113,652.325 L1431.054,731.717 L1257.555,798.187 L1227.945,715.278 Z M1215.968,719.631 L1245.652,802.747 L1079.548,866.383 L1047.598,780.84 L1215.968,719.631 Z M1030.02,733.777 L1199.172,672.602 L1214.897,716.632 L1046.484,777.857 L1030.02,733.777 Z M932.135,769.177 L1018.033,738.112 L1034.504,782.211 L948.406,813.511 L932.135,769.177 Z M929.139,770.261 L945.412,814.599 L861.277,845.185 L845.589,800.477 L929.139,770.261 Z M913.981,728.962 L928.042,767.274 L844.535,797.474 L831.028,758.984 L913.981,728.962 Z M798.756,667.02 L880.448,637.599 L909.59,716.998 L826.808,746.957 L798.756,667.02 Z M783.771,672.417 L811.831,752.378 L732.216,781.19 L702.308,701.757 L783.771,672.417 Z M876.057,625.635 L794.537,654.995 L761.526,560.926 L761.526,536.712 L845.495,542.366 L876.057,625.635 Z M1002.633,696.879 L1016.919,735.13 L931.038,766.19 L916.977,727.878 L1002.633,696.879 Z M912.585,715.914 L883.445,636.519 L967.726,606.164 L998.111,684.963 L912.585,715.914 Z M909.983,421.004 L963.747,429.032 L919.816,446.504 L909.983,421.004 Z M963.139,594.271 L879.054,624.555 L848.26,540.657 L856.042,475.296 L909.121,454.186 L963.139,594.271 Z M779.55,660.392 L697.817,689.829 L645.246,550.207 L745.661,511.788 L745.598,563.639 L779.55,660.392 Z M1037.4,414.263 L1047.626,333.286 L1144.068,347.566 L1132.897,428.523 L1037.4,414.263 Z M1129.413,453.77 L1127.287,469.181 L1127.075,470.727 L1147.486,527.878 L975.132,589.953 L920.962,449.477 L970.016,429.968 L1129.413,453.77 Z M792.212,282.587 L805.77,186.171 L846.022,290.554 L792.212,282.587 Z M851.291,304.216 L884.947,391.498 L779.119,375.695 L790.438,295.206 L851.291,304.216 Z M433.572,454.795 C450.595,468.997 508.852,519.84 538.562,574.059 L466.327,613.979 C450.375,559.086 401.372,522.892 383.573,511.269 L433.572,454.795 Z M299.284,375.091 L300.524,375.26 L422.985,447.53 L372.546,504.5 L289.209,454.139 L299.284,375.091 Z M293.658,318.446 L288.671,357.568 L257.136,353.269 L254.572,318.456 L293.658,318.446 Z M306.406,319.217 L370.207,327.021 L360.849,392.4 L305.856,359.911 L301.298,359.289 L306.406,319.217 Z M294.062,315.271 L254.723,315.271 L270.492,215.721 L305.937,222.099 L294.062,315.271 Z M2099.173,343.723 L2079.707,341.326 L2087.992,278.994 L2084.831,278.577 L2076.542,340.936 L2044.72,337.017 L2053.91,274.373 L2107.659,280.031 L2099.173,343.723 Z M2183.818,600.6 L2187.004,575.314 L2095.567,563.785 L2109.63,458.22 L2148.717,463.755 L2150.503,451.137 L2111.313,445.587 L2162.241,63.314 L2136.98,59.948 L2125.74,144.319 L2017.484,129.727 L2027.181,68.913 L2024.033,68.412 L2014.324,129.301 L1940.566,119.36 L1946.784,75.363 L1934.167,73.577 L1886.047,414.028 L1780.759,407.817 L1828.716,75.379 L1816.105,73.559 L1796.204,211.516 L1713.084,201.314 L1730.086,74.681 L1726.932,74.258 L1709.924,200.926 L1593.826,186.675 L1609.773,75.602 L1594.006,73.338 L1578.013,184.734 L1460.934,170.364 L1475.963,62.512 L1463.345,60.751 L1405.374,476.754 L1390.608,474.892 L1291.415,444.704 L1250.518,444.704 L1314.489,62.947 L1298.779,60.315 L1282.759,155.914 L1185.357,141.58 L1194.499,75.341 L1181.875,73.599 L1172.751,139.725 L1073.912,125.18 L1080.214,75.269 L1067.571,73.67 L1061.299,123.324 L847.688,91.888 L780.706,80.645 L782.236,79.382 L774.123,69.558 L764.076,77.854 L726.621,71.567 L711.054,56 L699.792,67.262 L705.65,73.119 L704.369,80.754 L715.082,82.552 L734.666,102.137 L662.112,162.043 L562.295,60.515 L560.024,62.749 L659.646,164.079 L659.172,164.471 L508.505,143.538 L519.079,63.295 L493.812,59.967 L483.261,140.031 L58.804,81.061 C58.73,76.902 58.616,74.437 58.6,74.084 L42.69,74.852 C42.696,74.98 42.757,76.384 42.813,78.839 L9.21,74.171 L18.561,66.577 L10.529,56.684 L-8.051,71.773 L-34.048,68.161 L-35.803,80.782 L-21.58,82.759 L-226.808,249.414 L-253.129,242.226 L-257.323,257.594 L-242.02,261.768 L-259.242,275.753 L-251.209,285.646 L-226.887,265.895 L-93.041,302.398 L-36.849,325.265 C-62.962,372.066 -73.909,419.445 -70.864,506.833 C-70.367,521.082 -69.489,534.913 -68.361,548.366 C-72.889,547.733 -77.414,547.093 -81.963,546.541 L-282.083,522.285 L-284,538.095 L-83.88,562.351 C-78.187,563.041 -72.517,563.815 -66.859,564.635 C-63.629,596.734 -59.127,626.484 -54.967,653.894 C-47.136,705.49 -40.952,746.244 -47.535,774.775 C-56.991,815.74 -119.62,1027.246 -149.437,1127.41 L-266.432,1096.769 L-269.661,1109.095 L-153.076,1139.627 C-159.669,1161.757 -164.069,1176.469 -164.989,1179.542 C-167.09,1184.047 -178.545,1209.961 -180.265,1239.68 L-255.228,1239.68 L-255.228,1242.866 L-180.435,1242.866 C-180.592,1247.581 -180.506,1252.37 -180.071,1257.174 C-180.447,1296.451 -189.726,1324.448 -207.771,1340.47 C-228.204,1358.62 -253.639,1354.66 -253.895,1354.616 L-256.592,1370.314 C-256.166,1370.388 -252.666,1370.964 -247.24,1370.964 C-235.661,1370.964 -215.318,1368.338 -197.427,1352.587 C-182.519,1339.461 -172.601,1320.2 -167.702,1295.095 C-167.615,1295.231 -167.541,1295.371 -167.453,1295.507 C-148.445,1324.741 -109.943,1338.641 -53.066,1336.855 C-18.854,1335.776 15.232,1333.797 51.32,1331.704 C65.008,1330.909 78.743,1330.115 92.528,1329.364 L148.622,1387.113 L150.908,1384.891 L96.749,1329.133 C206.099,1323.261 318.959,1320.599 441.509,1345.22 L431.745,1357.515 L444.22,1367.42 L458.927,1348.901 C484.893,1354.631 511.292,1361.595 538.199,1370.065 L542.984,1354.871 C518.303,1347.102 493.933,1340.606 469.859,1335.134 L504.209,1291.88 L489.242,1205.628 L511.056,1178.989 L625.739,1145.011 L626.955,1144.038 C628.07,1143.145 631.429,1140.049 634.801,1133.002 C639.911,1137.093 646.99,1140.69 656.105,1140.69 C657.614,1140.69 659.179,1140.59 660.799,1140.378 C666.94,1139.579 693.956,1129.408 728.656,1115.611 L799.923,1291.775 L701.506,1368.456 L709.34,1378.511 L804.892,1304.058 L839.251,1388.989 L854.016,1383.016 L826.852,1315.873 L870.113,1260.195 L951.566,1382.374 L972.771,1368.239 L947.02,1329.612 C972.169,1298.477 998.569,1266.265 1020.286,1240.305 L1105.531,1319.393 L1106.333,1323.789 L1095.187,1360.622 L1107.382,1364.312 L1111.334,1351.25 L1113.682,1364.138 L1126.219,1361.855 L1119.42,1324.528 L1153.497,1211.918 L1132.476,1155.776 C1160.717,1141.439 1200.434,1120.947 1256.609,1091.595 L1443.839,1147.148 L1525.917,1215.515 L1931.749,1272.39 L1932.863,1272.548 L1975.643,1270.961 L1963.676,1360.785 L1988.938,1364.151 L2045.029,943.12 L2148.518,957.429 L2150.702,941.65 L2047.133,927.331 L2092.201,589.048 L2183.818,600.6 Z M1239.906,1225.805 L1190.001,1214.923 L1145.24,1373.05 L1148.307,1373.915 L1192.247,1218.675 L1240.143,1229.116 L1297.468,1207.628 L1296.348,1204.648 L1239.906,1225.805 Z M1394.465,79.433 L1391.317,78.929 L1378.444,159.508 L1381.592,160.012 L1394.465,79.433 Z" id="Fill-1"></path>
            </g>
        </g>
    </g>
</svg>