<svg width="18" height="16" viewBox="0 0 18 16" fill="none" xmlns="http://www.w3.org/2000/svg">
<path d="M9 15.1738C9.11458 15.1738 9.22559 15.1523 9.33301 15.1094C9.44043 15.0664 9.52995 15.0091 9.60156 14.9375L16.9277 8.51367C17.028 8.44206 17.1068 8.34538 17.1641 8.22363C17.2214 8.10189 17.25 7.9694 17.25 7.82617C17.25 7.69727 17.2214 7.57194 17.1641 7.4502C17.1068 7.32845 17.028 7.22461 16.9277 7.13867L9.60156 0.736328C9.51562 0.664714 9.42253 0.607422 9.32227 0.564453C9.222 0.521484 9.11458 0.5 9 0.5C8.74219 0.5 8.52376 0.589518 8.34473 0.768555C8.16569 0.947591 8.07617 1.16602 8.07617 1.42383V5.80664L2.27539 0.736328C2.18945 0.664714 2.09635 0.607422 1.99609 0.564453C1.89583 0.521484 1.78841 0.5 1.67383 0.5C1.41602 0.5 1.19759 0.589518 1.01855 0.768555C0.839518 0.947591 0.75 1.16602 0.75 1.42383V14.25C0.75 14.5078 0.839518 14.7262 1.01855 14.9053C1.19759 15.0843 1.41602 15.1738 1.67383 15.1738C1.78841 15.1738 1.89583 15.1523 1.99609 15.1094C2.09635 15.0664 2.18945 15.0091 2.27539 14.9375L8.07617 9.8457V14.25C8.07617 14.5078 8.16569 14.7262 8.34473 14.9053C8.52376 15.0843 8.74219 15.1738 9 15.1738Z" fill="#DB2966"/>
</svg>
