<svg width="18" height="20" viewBox="0 0 18 20" fill="none" xmlns="http://www.w3.org/2000/svg">
<path fill-rule="evenodd" clip-rule="evenodd" d="M11.9297 17.8906C11.3516 18.8594 10.375 19.3438 9 19.3438C7.625 19.3438 6.64844 18.8594 6.07031 17.8906C5.49219 16.9219 5.14844 15.9922 5.03906 15.1016H1.00781L0.870768 15.0934C0.648329 15.0663 0.455729 14.9714 0.292969 14.8086C0.0976562 14.6133 0 14.375 0 14.0938C0 13.9219 0.0429688 13.7617 0.128906 13.6133C0.214844 13.4648 0.328125 13.3438 0.46875 13.25C0.515625 13.2188 0.894531 12.7422 1.60547 11.8203C2.31641 10.8984 2.67188 9.17188 2.67188 6.64062V6.61719C2.6875 5.78906 2.86719 5.01562 3.21094 4.29688C3.53906 3.5625 3.98047 2.92578 4.53516 2.38672C5.08984 1.84766 5.73438 1.42188 6.46875 1.10938C7.20312 0.796875 7.99219 0.640625 8.83594 0.640625H8.91797C8.94141 0.640625 8.96875 0.648438 9 0.664062C9.01562 0.648438 9.03906 0.640625 9.07031 0.640625H9.16406C10.0078 0.640625 10.7969 0.796875 11.5312 1.10938C12.2656 1.42188 12.9102 1.84766 13.4648 2.38672C14.0195 2.92578 14.4609 3.5625 14.7891 4.29688C15.1328 5.01562 15.3125 5.79688 15.3281 6.64062C15.3281 9.17188 15.6875 10.8984 16.4062 11.8203C17.125 12.7422 17.5078 13.2188 17.5547 13.25C17.6797 13.3438 17.7852 13.4648 17.8711 13.6133C17.957 13.7617 18 13.9219 18 14.0938C18 14.1406 17.9961 14.1914 17.9883 14.2461C17.9805 14.3008 17.9688 14.3438 17.9531 14.375V14.3984C17.8906 14.6016 17.7734 14.7695 17.6016 14.9023C17.4297 15.0352 17.2266 15.1016 16.9922 15.1016H12.9609C12.8516 15.9922 12.5078 16.9219 11.9297 17.8906ZM7.58203 16.5547C7.85547 17.0859 8.32812 17.3516 9 17.3516C9.67188 17.3516 10.1445 17.0859 10.418 16.5547C10.6914 16.0234 10.8594 15.5391 10.9219 15.1016H7.07812C7.14062 15.5391 7.30859 16.0234 7.58203 16.5547Z" fill="#4D244A"/>
</svg>
