<svg width="22" height="21" viewBox="0 0 22 21" fill="none" xmlns="http://www.w3.org/2000/svg">
<path opacity="0.199102" fill-rule="evenodd" clip-rule="evenodd" d="M13.041 20.709C12.3822 20.8522 11.7018 20.9238 11 20.9238C10.2982 20.9238 9.61784 20.8522 8.95898 20.709C8.30013 20.5801 7.66992 20.3867 7.06836 20.1289C6.4668 19.8711 5.90104 19.556 5.37109 19.1836C4.82682 18.8255 4.32552 18.4173 3.86719 17.959C3.40885 17.5007 3.00065 17.0065 2.64258 16.4766C2.27018 15.9323 1.95866 15.3594 1.70801 14.7578C1.45736 14.1562 1.26042 13.526 1.11719 12.8672C0.988281 12.2083 0.923828 11.528 0.923828 10.8262C0.923828 10.1387 0.988281 9.4655 1.11719 8.80664C1.26042 8.14779 1.45736 7.51758 1.70801 6.91602C1.95866 6.31445 2.27018 5.74154 2.64258 5.19727C3.00065 4.65299 3.40885 4.15169 3.86719 3.69336C4.32552 3.24935 4.82682 2.84115 5.37109 2.46875C5.90104 2.11068 6.4668 1.80273 7.06836 1.54492C7.66992 1.28711 8.30013 1.09375 8.95898 0.964844C9.61784 0.821615 10.2982 0.75 11 0.75C11.7018 0.75 12.3822 0.821615 13.041 0.964844C13.6999 1.09375 14.3301 1.28711 14.9316 1.54492C15.5332 1.80273 16.099 2.11068 16.6289 2.46875C17.1732 2.84115 17.6745 3.24935 18.1328 3.69336C18.5911 4.15169 18.9993 4.65299 19.3574 5.19727C19.7298 5.74154 20.0413 6.31445 20.292 6.91602C20.5426 7.51758 20.7396 8.14779 20.8828 8.80664C21.0117 9.4655 21.0762 10.1387 21.0762 10.8262C21.0762 11.528 21.0117 12.2083 20.8828 12.8672C20.7396 13.526 20.5426 14.1562 20.292 14.7578C20.0413 15.3594 19.7298 15.9323 19.3574 16.4766C18.9993 17.0065 18.5911 17.5007 18.1328 17.959C17.6745 18.4173 17.1732 18.8255 16.6289 19.1836C16.099 19.556 15.5332 19.8711 14.9316 20.1289C14.3301 20.3867 13.6999 20.5801 13.041 20.709ZM7.78809 18.4316C8.78353 18.8613 9.85417 19.0762 11 19.0762C12.1458 19.0762 13.2165 18.8613 14.2119 18.4316C15.2074 18.002 16.0846 17.4147 16.8438 16.6699C17.5885 15.9251 18.1758 15.0514 18.6055 14.0488C19.0352 13.0462 19.25 11.972 19.25 10.8262C19.25 9.69466 19.0352 8.6276 18.6055 7.625C18.1758 6.6224 17.5885 5.7487 16.8438 5.00391C16.0846 4.25911 15.2074 3.66829 14.2119 3.23145C13.2165 2.7946 12.1458 2.57617 11 2.57617C9.85417 2.57617 8.78353 2.7946 7.78809 3.23145C6.79264 3.66829 5.91536 4.25911 5.15625 5.00391C4.41146 5.7487 3.82422 6.6224 3.39453 7.625C2.96484 8.6276 2.75 9.69466 2.75 10.8262C2.75 11.972 2.96484 13.0462 3.39453 14.0488C3.82422 15.0514 4.41146 15.9251 5.15625 16.6699C5.91536 17.4147 6.79264 18.002 7.78809 18.4316ZM7.41211 15.5957L13.2344 13.6406C13.3633 13.5977 13.4814 13.526 13.5889 13.4258C13.6963 13.3255 13.7715 13.2038 13.8145 13.0605L15.748 7.23828C15.791 7.15234 15.8125 7.05925 15.8125 6.95898C15.8125 6.85872 15.791 6.75846 15.748 6.6582C15.6764 6.41471 15.526 6.23568 15.2969 6.12109C15.0677 6.00651 14.8314 5.99219 14.5879 6.07812L8.76562 8.01172C8.63672 8.06901 8.51855 8.14779 8.41113 8.24805C8.30371 8.34831 8.22852 8.46289 8.18555 8.5918L6.25195 14.4355C6.22331 14.5215 6.2054 14.6146 6.19824 14.7148C6.19108 14.8151 6.20898 14.9154 6.25195 15.0156C6.32357 15.2448 6.47396 15.4167 6.70312 15.5312C6.93229 15.6458 7.16862 15.6673 7.41211 15.5957ZM9.77539 9.62305L8.57227 13.2754L12.2246 12.0508L13.4277 8.39844L9.77539 9.62305Z" fill="#4D244A"/>
</svg>
