<svg width="13" height="18" viewBox="0 0 13 18" fill="none" xmlns="http://www.w3.org/2000/svg">
<path d="M1.86523 17.6133C2.03711 17.599 2.20182 17.5632 2.35938 17.5059C2.51693 17.4486 2.66016 17.3698 2.78906 17.2695L12.3281 10.1152C12.5286 9.972 12.6898 9.78939 12.8115 9.56738C12.9333 9.34538 12.9941 9.09831 12.9941 8.82617C12.9941 8.56836 12.9333 8.32845 12.8115 8.10645C12.6898 7.88444 12.5286 7.70182 12.3281 7.55859H12.3066L2.78906 0.404297C2.66016 0.304036 2.52051 0.22168 2.37012 0.157227C2.21973 0.0927734 2.05859 0.0605469 1.88672 0.0605469C1.78646 0.0605469 1.6862 0.0712891 1.58594 0.0927734C1.48568 0.114258 1.39258 0.146484 1.30664 0.189453C1.0918 0.318359 0.916341 0.490234 0.780273 0.705078C0.644206 0.919922 0.576172 1.15625 0.576172 1.41406V16.2598C0.576172 16.5176 0.644206 16.7539 0.780273 16.9688C0.916341 17.1836 1.0918 17.3483 1.30664 17.4629C1.39258 17.5059 1.4821 17.5417 1.5752 17.5703C1.63726 17.5894 1.70092 17.6021 1.76617 17.6085L1.86523 17.6133Z" fill="#DB2966"/>
</svg>
