<svg width="18" height="16" viewBox="0 0 18 16" fill="none" xmlns="http://www.w3.org/2000/svg">
<path opacity="0.3" fill-rule="evenodd" clip-rule="evenodd" d="M9 15.1738C8.88542 15.1738 8.77441 15.1523 8.66699 15.1094C8.55957 15.0664 8.47005 15.0091 8.39844 14.9375L1.07227 8.51367C0.972006 8.44206 0.893229 8.34538 0.835938 8.22363C0.778646 8.10189 0.75 7.9694 0.75 7.82617C0.75 7.69727 0.778646 7.57194 0.835938 7.4502C0.893229 7.32845 0.972006 7.22461 1.07227 7.13867L8.39844 0.736328C8.48438 0.664714 8.57747 0.607422 8.67773 0.564453C8.778 0.521484 8.88542 0.5 9 0.5C9.25781 0.5 9.47624 0.589518 9.65527 0.768555C9.83431 0.947591 9.92383 1.16602 9.92383 1.42383V5.80664L15.7246 0.736328C15.8105 0.664714 15.9036 0.607422 16.0039 0.564453C16.1042 0.521484 16.2116 0.5 16.3262 0.5C16.584 0.5 16.8024 0.589518 16.9814 0.768555C17.1605 0.947591 17.25 1.16602 17.25 1.42383V14.25C17.25 14.5078 17.1605 14.7262 16.9814 14.9053C16.8024 15.0843 16.584 15.1738 16.3262 15.1738C16.2116 15.1738 16.1042 15.1523 16.0039 15.1094C15.9036 15.0664 15.8105 15.0091 15.7246 14.9375L9.92383 9.8457V14.25C9.92383 14.5078 9.83431 14.7262 9.65527 14.9053C9.47624 15.0843 9.25781 15.1738 9 15.1738ZM15.4238 12.2305V3.44336L10.3965 7.82617L15.4238 12.2305ZM8.07617 3.44336V12.2305L3.04883 7.82617L8.07617 3.44336Z" fill="#DB2966"/>
</svg>
