<svg width="22" height="19" viewBox="0 0 22 19" fill="none" xmlns="http://www.w3.org/2000/svg">
<path fill-rule="evenodd" clip-rule="evenodd" d="M11 19C11.2578 19 11.4762 18.9105 11.6553 18.7314C11.8343 18.5524 11.9238 18.334 11.9238 18.0762C11.9238 17.5749 12.1029 17.1452 12.4609 16.7871C12.819 16.429 13.2487 16.25 13.75 16.25H20.1738C20.4173 16.25 20.6286 16.1605 20.8076 15.9814C20.9867 15.8024 21.0762 15.584 21.0762 15.3262V1.57617C21.0762 1.33268 20.9867 1.12142 20.8076 0.942383C20.6286 0.763346 20.4173 0.673828 20.1738 0.673828H14.6738C13.9147 0.673828 13.2165 0.842122 12.5791 1.17871C11.9417 1.5153 11.4154 1.96289 11 2.52148C10.5846 1.96289 10.0583 1.5153 9.4209 1.17871C8.78353 0.842122 8.08529 0.673828 7.32617 0.673828H1.82617C1.58268 0.673828 1.37142 0.763346 1.19238 0.942383C1.01335 1.12142 0.923828 1.33268 0.923828 1.57617V15.3262C0.923828 15.584 1.01335 15.8024 1.19238 15.9814C1.37142 16.1605 1.58268 16.25 1.82617 16.25H8.25C8.7513 16.25 9.18099 16.429 9.53906 16.7871C9.89714 17.1452 10.0762 17.5749 10.0762 18.0762C10.0762 18.334 10.1657 18.5524 10.3447 18.7314C10.5238 18.9105 10.7422 19 11 19ZM10.0762 14.918C9.81836 14.7604 9.53548 14.6387 9.22754 14.5527C8.99658 14.4883 8.75555 14.448 8.50446 14.4319L8.25 14.4238H2.75V2.5H7.32617C8.08529 2.5 8.7334 2.76855 9.27051 3.30566C9.80762 3.84277 10.0762 4.49089 10.0762 5.25V14.918ZM11.9238 5.25L11.923 14.907L12.1098 14.8065C12.3206 14.7018 12.5415 14.6172 12.7725 14.5527C13.0804 14.4668 13.4062 14.4238 13.75 14.4238H19.25V2.5H14.6738C13.9147 2.5 13.2666 2.76855 12.7295 3.30566C12.1924 3.84277 11.9238 4.49089 11.9238 5.25Z" fill="#DB2966"/>
</svg>
