<?xml version="1.0" encoding="utf-8"?>
<svg width="24" height="24" viewBox="0 0 24 24" fill="#DB2966" xmlns="http://www.w3.org/2000/svg">
  <path fill-rule="evenodd" clip-rule="evenodd" d="M3.29197 9.01289L3.17781 9.05442C6.48499e-05 10.2125 6.48499e-05 10.3473 0 10.674V13.2176C0 13.5438 0 13.6664 3.17612 14.9238L3.28256 14.9664L3.72837 16.047L3.67541 16.1618C2.25199 19.2195 2.34603 19.3153 2.57305 19.5466L2.57332 19.5469L4.37965 21.3502C4.45487 21.4262 4.58584 21.4756 4.69611 21.4756C4.9685 21.4756 6.01963 21.0833 7.81927 20.306L7.92337 20.2627L9.01728 20.7141L9.06057 20.8295C10.2218 24 10.3544 24 10.6739 24H13.2192C13.5308 24 13.6594 24 14.9115 20.8382L14.9542 20.726L16.0528 20.2725L16.1594 20.3234C18.8222 21.5531 19.1285 21.5531 19.2293 21.5531C19.3406 21.5531 19.4711 21.5002 19.5465 21.4262L21.3455 19.6296L21.3458 19.6292C21.5755 19.396 21.6604 19.3099 20.3104 16.183L20.2624 16.0724L20.7091 14.9904L20.8226 14.9494C24 13.7871 24 13.6514 24 13.3247V10.7796C24 10.4537 24 10.3318 20.8289 9.08086L20.7196 9.03773L20.2731 7.9525L20.3253 7.83895C21.7468 4.77717 21.6519 4.68071 21.4231 4.45036L19.6197 2.65103C19.5457 2.57663 19.4159 2.52569 19.3047 2.52569C19.0305 2.52569 17.9789 2.91875 16.1777 3.69386L16.0733 3.73818L14.9812 3.28371L14.9375 3.16837C13.7771 0 13.6358 0 13.3256 0H10.7812C10.4698 0 10.3416 0 9.09023 3.16287L9.04616 3.27444L7.9483 3.72573L7.8416 3.67684C5.18059 2.44659 4.87355 2.44659 4.77217 2.44659C4.66067 2.44659 4.53132 2.49906 4.45766 2.57365L2.65594 4.36782L2.6558 4.36796C2.43187 4.59456 2.33906 4.68847 3.68949 7.81483L3.73784 7.92646L3.29197 9.01289ZM16.124 12.0005C16.124 14.2755 14.2741 16.1278 12.0001 16.1278C9.72697 16.1278 7.87736 14.2751 7.87742 12.0005C7.87742 9.72573 9.72704 7.87552 12.0001 7.87552C14.274 7.87552 16.124 9.72533 16.124 12.0005Z" fill="#DB2966"/>
</svg>