<svg width="20" height="19" viewBox="0 0 20 19" fill="none" xmlns="http://www.w3.org/2000/svg">
<path fill-rule="evenodd" clip-rule="evenodd" d="M18.6367 18.4629C18.2786 18.821 17.8418 19 17.3262 19H2.67383C2.1582 19 1.72135 18.821 1.36328 18.4629C1.00521 18.1048 0.826172 17.6751 0.826172 17.1738V8C0.826172 7.4987 1.00521 7.06901 1.36328 6.71094C1.72135 6.35286 2.1582 6.17383 2.67383 6.17383H4.5V3.42383C4.5 2.66471 4.76855 2.0166 5.30566 1.47949C5.84277 0.942383 6.49089 0.673828 7.25 0.673828H12.75C13.5091 0.673828 14.1572 0.942383 14.6943 1.47949C15.2314 2.0166 15.5 2.66471 15.5 3.42383V6.17383H17.3262C17.8418 6.17383 18.2786 6.35286 18.6367 6.71094C18.9948 7.06901 19.1738 7.4987 19.1738 8V17.1738C19.1738 17.6751 18.9948 18.1048 18.6367 18.4629ZM6.32617 17.1738H13.6738V3.42383C13.6738 3.16602 13.5843 2.94759 13.4053 2.76855C13.2262 2.58952 13.0078 2.5 12.75 2.5H7.25C6.99219 2.5 6.77376 2.58952 6.59473 2.76855C6.41569 2.94759 6.32617 3.16602 6.32617 3.42383V17.1738ZM8.17383 6.17383C8.41732 6.17383 8.62858 6.08431 8.80762 5.90527C8.98665 5.72624 9.07617 5.50781 9.07617 5.25C9.07617 5.19271 9.06901 5.13184 9.05469 5.06738C9.04036 5.00293 9.02604 4.94922 9.01172 4.90625V4.88477C8.98307 4.8418 8.95443 4.79525 8.92578 4.74512C8.89714 4.69499 8.86133 4.64844 8.81836 4.60547C8.73242 4.51953 8.63574 4.4515 8.52832 4.40137C8.4209 4.35124 8.30273 4.32617 8.17383 4.32617C7.91602 4.32617 7.69759 4.41569 7.51855 4.59473C7.36936 4.74392 7.28233 4.92047 7.25746 5.12438L7.25 5.25C7.25 5.50781 7.33952 5.72624 7.51855 5.90527C7.69759 6.08431 7.91602 6.17383 8.17383 6.17383ZM12.4814 5.90527C12.3024 6.08431 12.084 6.17383 11.8262 6.17383C11.5827 6.17383 11.3714 6.08431 11.1924 5.90527C11.0133 5.72624 10.9238 5.50781 10.9238 5.25L10.9313 5.12438C10.9562 4.92047 11.0432 4.74392 11.1924 4.59473C11.3714 4.41569 11.5827 4.32617 11.8262 4.32617C11.9551 4.32617 12.0768 4.35124 12.1914 4.40137C12.306 4.4515 12.4062 4.51953 12.4922 4.60547C12.5638 4.69141 12.6247 4.78809 12.6748 4.89551C12.7249 5.00293 12.75 5.12109 12.75 5.25C12.75 5.50781 12.6605 5.72624 12.4814 5.90527ZM4.5 17.1738H2.67383V8H4.5V17.1738ZM15.5 17.1738H17.3262V8H15.5V17.1738ZM8.15234 9.82617C8.22396 9.82617 8.28841 9.82259 8.3457 9.81543C8.40299 9.80827 8.46029 9.79036 8.51758 9.76172C8.57487 9.73307 8.62858 9.70443 8.67871 9.67578C8.72884 9.64714 8.77539 9.61133 8.81836 9.56836C8.86133 9.52539 8.89714 9.47884 8.92578 9.42871C8.95443 9.37858 8.98307 9.32487 9.01172 9.26758C9.04036 9.21029 9.05827 9.153 9.06543 9.0957C9.07259 9.03841 9.07617 8.98112 9.07617 8.92383C9.07617 8.85221 9.07259 8.78776 9.06543 8.73047C9.05827 8.67318 9.04036 8.61589 9.01172 8.55859C8.98307 8.5013 8.95443 8.44759 8.92578 8.39746C8.89714 8.34733 8.86133 8.30078 8.81836 8.25781C8.73242 8.1862 8.63216 8.12891 8.51758 8.08594C8.40299 8.04297 8.28841 8.02148 8.17383 8.02148C8.04492 8.02148 7.92318 8.04297 7.80859 8.08594C7.69401 8.12891 7.59375 8.1862 7.50781 8.25781C7.47917 8.30078 7.44694 8.34733 7.41113 8.39746C7.37533 8.44759 7.3431 8.5013 7.31445 8.55859H7.33594C7.30729 8.61589 7.28581 8.67318 7.27148 8.73047C7.25716 8.78776 7.25 8.85221 7.25 8.92383C7.25 8.98112 7.25716 9.03841 7.27148 9.0957L7.31445 9.26758H7.33594C7.35026 9.32487 7.37533 9.37858 7.41113 9.42871C7.44694 9.47884 7.47917 9.52539 7.50781 9.56836C7.59375 9.6543 7.69043 9.71875 7.79785 9.76172C7.90527 9.80469 8.02344 9.82617 8.15234 9.82617ZM12.1914 9.77246C12.0768 9.82259 11.9551 9.84766 11.8262 9.84766C11.5827 9.84766 11.3714 9.75814 11.1924 9.5791C11.0133 9.40007 10.9238 9.18164 10.9238 8.92383C10.9238 8.86654 10.9274 8.80566 10.9346 8.74121C10.9417 8.67676 10.9596 8.61589 10.9883 8.55859C11.0169 8.5013 11.0456 8.44759 11.0742 8.39746C11.1029 8.34733 11.1387 8.30078 11.1816 8.25781C11.2676 8.1862 11.3678 8.12891 11.4824 8.08594C11.597 8.04297 11.7116 8.02148 11.8262 8.02148C11.9551 8.02148 12.0768 8.04297 12.1914 8.08594C12.306 8.12891 12.4062 8.1862 12.4922 8.25781C12.5208 8.30078 12.5531 8.34733 12.5889 8.39746C12.6247 8.44759 12.6497 8.5013 12.6641 8.55859H12.6855L12.7285 8.73047C12.7428 8.78776 12.75 8.85221 12.75 8.92383C12.75 8.98112 12.7428 9.03841 12.7285 9.0957C12.7142 9.153 12.6927 9.21029 12.6641 9.26758H12.6855C12.6569 9.32487 12.6247 9.37858 12.5889 9.42871C12.5531 9.47884 12.5208 9.52539 12.4922 9.56836C12.4062 9.6543 12.306 9.72233 12.1914 9.77246ZM8.17383 13.5C8.30273 13.5 8.4209 13.4749 8.52832 13.4248C8.63574 13.3747 8.73242 13.3138 8.81836 13.2422C8.86133 13.1992 8.89714 13.1527 8.92578 13.1025C8.95443 13.0524 8.98307 12.9987 9.01172 12.9414C9.04036 12.8841 9.05827 12.8268 9.06543 12.7695C9.07259 12.7122 9.07617 12.6549 9.07617 12.5977V12.5762C9.07617 12.4473 9.05469 12.3291 9.01172 12.2217C8.96875 12.1143 8.9043 12.0176 8.81836 11.9316C8.73242 11.8457 8.63574 11.7777 8.52832 11.7275C8.4209 11.6774 8.30273 11.6523 8.17383 11.6523C7.91602 11.6523 7.69759 11.7419 7.51855 11.9209C7.36936 12.0701 7.28233 12.2466 7.25746 12.4505L7.25 12.5762V12.5977C7.25 12.8411 7.33952 13.0524 7.51855 13.2314C7.69759 13.4105 7.91602 13.5 8.17383 13.5ZM12.1914 13.4248C12.0768 13.4749 11.9551 13.5 11.8262 13.5C11.5827 13.5 11.3714 13.4105 11.1924 13.2314C11.0133 13.0524 10.9238 12.8411 10.9238 12.5977V12.5762L10.9313 12.4505C10.9562 12.2466 11.0432 12.0701 11.1924 11.9209C11.3714 11.7419 11.5827 11.6523 11.8262 11.6523C11.9551 11.6523 12.0768 11.6774 12.1914 11.7275C12.306 11.7777 12.4062 11.8457 12.4922 11.9316C12.5638 12.0176 12.6247 12.1143 12.6748 12.2217C12.7249 12.3291 12.75 12.4473 12.75 12.5762V12.5977C12.75 12.6549 12.7428 12.7122 12.7285 12.7695C12.7142 12.8268 12.6927 12.8841 12.6641 12.9414H12.6855C12.6569 12.9987 12.6247 13.0524 12.5889 13.1025C12.5531 13.1527 12.5208 13.1992 12.4922 13.2422C12.4062 13.3138 12.306 13.3747 12.1914 13.4248Z" fill="#DB2966"/>
</svg>
